<svg width="80" height="95" viewBox="0 0 80 95" fill="none" xmlns="http://www.w3.org/2000/svg">
<circle cx="37" cy="58" r="37" fill="#46A358" fill-opacity="0.13"/>
<g clip-path="url(#clip0_101_253)">
<path d="M31.1293 44.3569C43.7023 46.0205 56.3918 46.282 69.0231 45.1369C69.8795 45.0602 69.8885 43.7078 69.0231 43.7844C56.3918 44.9295 43.7023 44.668 31.1293 43.0045C30.2773 42.8917 30.2818 44.2487 31.1293 44.3569Z" fill="#727272"/>
<path d="M34.0304 90.0306C39.4649 90.7249 44.9353 91.063 50.4147 90.9864C55.235 90.9188 60.9251 91.1307 65.4449 89.2236C66.2296 88.89 65.8843 87.5826 65.0862 87.9207C60.4498 89.8774 54.5086 89.6114 49.5493 89.6429C44.3569 89.679 39.178 89.3364 34.0259 88.6781C33.174 88.5699 33.1785 89.9224 34.0304 90.0306Z" fill="#727272"/>
<path d="M30.6047 43.3156C24.3316 49.1673 21.4081 57.8909 22.0986 66.3981C22.4529 70.7937 23.6904 75.0676 25.5513 79.0529C27.2462 82.6866 29.7438 87.8937 33.4923 89.7827C34.2636 90.1704 34.9451 89.0073 34.1694 88.6151C30.6809 86.8568 28.3089 81.794 26.7126 78.3722C24.8563 74.3823 23.6411 70.0498 23.39 65.6452C22.9416 57.7061 25.7127 49.7219 31.5598 44.2713C32.1965 43.6807 31.2414 42.725 30.6047 43.3156Z" fill="#727272"/>
<path d="M68.5478 44.952C75.1661 49.1222 75.7893 58.1163 75.6279 65.1988C75.4485 73.0974 74.4755 85.6125 65.0862 87.9207C64.2477 88.1281 64.6019 89.431 65.4449 89.2236C75.2468 86.8162 76.6547 74.3958 76.9507 66.0374C77.2242 58.2155 76.5337 48.3873 69.2248 43.7844C68.4895 43.3245 67.8169 44.4922 68.5478 44.952Z" fill="#727272"/>
<path d="M35.5774 44.3659C30.6405 49.7083 28.4613 58.6302 29.2954 65.7849C29.7796 69.9461 31.0889 74.0757 32.0619 78.1377C33.0394 82.2087 34.0483 86.2481 36.2634 89.8412C36.7208 90.5806 37.8821 89.8999 37.4247 89.1605C35.3442 85.7883 34.3757 82.0193 33.4565 78.2008C32.5686 74.522 31.5328 70.8387 30.8468 67.1194C29.5465 60.0368 31.5822 50.6775 36.5279 45.3217C37.1153 44.6815 36.1647 43.7257 35.5774 44.3659Z" fill="#727272"/>
<path d="M42.2405 44.9295C38.5637 51.4395 36.6311 58.8332 36.7297 66.326C36.7791 69.9236 37.2902 73.5257 38.2677 76.9881C39.4829 81.2845 41.3303 85.3601 42.1374 89.7737C42.2943 90.6303 43.5902 90.2651 43.4332 89.413C42.7292 85.5494 41.2361 81.9518 40.0479 78.2279C38.8955 74.6122 38.205 70.8839 38.0884 67.0834C37.8552 59.568 39.7116 52.1428 43.4018 45.6103C43.8323 44.8529 42.671 44.1721 42.2405 44.9295Z" fill="#727272"/>
<path d="M46.2043 46.2234C47.4822 53.7343 45.9308 61.2587 46.0608 68.8011C46.1191 72.2454 46.8859 75.4508 47.3343 78.8411C47.8006 82.3621 47.0024 85.9823 46.5675 89.4762C46.4599 90.3373 47.8051 90.3283 47.9127 89.4762C48.3521 85.9507 49.1458 82.3035 48.6794 78.7509C48.2041 75.1172 47.4015 71.6729 47.397 67.9761C47.3881 60.5779 48.7512 53.2339 47.5002 45.8673C47.3522 45.0107 46.0563 45.3714 46.2043 46.2234Z" fill="#727272"/>
<path d="M56.9075 45.6283C57.4052 47.1567 58.4813 48.1755 59.3064 49.519C60.248 51.0518 60.7636 52.7875 61.0416 54.5548C61.647 58.4139 61.36 62.4534 61.351 66.344C61.3421 70.5773 61.6649 75.0541 60.5753 79.1882C59.6158 82.8174 57.4141 85.9462 56.6788 89.652C56.5084 90.5041 57.8042 90.8648 57.9746 90.0127C58.7638 86.0454 61.2031 82.6867 62.064 78.7374C62.9473 74.6979 62.6873 70.4511 62.6962 66.344C62.7052 62.548 62.9339 58.6664 62.4362 54.8929C62.2164 53.2249 61.8398 51.5748 61.1224 50.051C60.3242 48.3514 58.7862 47.0575 58.2078 45.2722C57.9343 44.4472 56.6339 44.7988 56.9075 45.6283Z" fill="#727272"/>
<path d="M63.4495 45.4163C66.122 47.941 67.4088 51.9714 68.3729 55.4518C69.3773 59.0765 69.041 62.9447 68.8168 66.655C68.3639 74.1839 67.0995 81.7037 63.5078 88.4121C63.0953 89.1785 64.2566 89.8638 64.6692 89.0929C68.4984 81.9382 69.7764 73.8953 70.2023 65.8705C70.4176 61.8311 70.5924 57.8863 69.3325 53.9957C68.2384 50.6189 67.0322 46.9492 64.4001 44.4561C63.7724 43.8655 62.8173 44.8212 63.4495 45.4163Z" fill="#727272"/>
<path d="M35.4697 48.7977C35.3307 49.1538 35.1783 49.5055 35.0124 49.8526C34.8016 50.2899 35.0483 50.8895 35.5953 50.8715C35.9854 50.858 36.2948 50.6822 36.5728 50.4162C36.6625 50.3305 36.7522 50.2403 36.8374 50.1547C36.9495 50.042 36.8015 50.2223 36.8867 50.1186C36.8687 50.1457 36.7746 50.1366 36.8598 50.1457C36.6445 49.8616 36.4293 49.5731 36.2096 49.2891C36.1513 49.5911 36.0885 49.8932 36.0302 50.1998C35.9585 50.5559 36.1334 50.9301 36.5011 51.0338C36.8329 51.124 37.2588 50.9211 37.3306 50.5604C37.3889 50.2584 37.4517 49.9563 37.5099 49.6497C37.5996 49.1899 37.3171 48.8383 36.8598 48.7932C36.4876 48.7571 36.1513 48.9555 35.8868 49.1989C35.7926 49.2846 35.7119 49.3747 35.6177 49.4604C35.5863 49.4874 35.5594 49.5145 35.528 49.5415C35.5415 49.528 35.5549 49.519 35.5684 49.5055C35.5011 49.5415 35.5011 49.5461 35.5774 49.5145C35.5011 49.5325 35.5056 49.537 35.5908 49.5145C35.7836 49.8526 35.9764 50.1907 36.1737 50.5334C36.389 50.0825 36.5863 49.6227 36.7656 49.1583C36.8956 48.8157 36.6221 48.4145 36.2948 48.3243C35.9181 48.2206 35.6043 48.455 35.4697 48.7977Z" fill="#727272"/>
<path d="M32.1382 56.8901C32.0754 57.2688 32.0126 57.6475 31.9499 58.0217C31.9005 58.3237 31.9812 58.6213 32.2592 58.7836C32.5059 58.9279 32.878 58.9008 33.0753 58.6799C33.2054 58.5311 33.3354 58.3824 33.4654 58.2336C33.5506 58.1344 33.6717 57.9496 33.7748 57.8955C33.6627 57.927 33.5506 57.9586 33.434 57.9856C33.4565 57.9811 33.4834 57.9811 33.5058 57.9766C33.3937 57.945 33.2816 57.9135 33.165 57.8864C33.1829 57.9 33.2009 57.9135 33.2188 57.927C33.1067 57.7332 32.9946 57.5393 32.887 57.3409C32.9229 57.7286 32.8153 58.1614 32.7704 58.5537C32.7076 59.1172 33.3758 59.3246 33.7838 59.1397C34.3129 58.8918 34.6671 58.4365 34.8555 57.8909C34.4788 57.9901 34.1066 58.0893 33.73 58.1885C33.7165 58.1028 33.7031 58.0172 33.6896 57.9315C33.4699 58.7746 34.7703 59.1352 34.9855 58.2922C35.0841 57.909 34.9945 57.4897 34.6806 57.2327C34.277 56.9036 33.7345 57.0208 33.5551 57.5303C33.4744 57.7557 33.3085 57.8729 33.1022 57.9721C33.4385 58.166 33.7748 58.3598 34.1156 58.5582C34.1829 57.9541 34.5057 56.8811 33.6807 56.6512C32.9856 56.4573 32.4969 57.2868 32.1202 57.7241C32.4969 57.945 32.8691 58.1614 33.2457 58.3824C33.3085 58.0037 33.3713 57.625 33.434 57.2508C33.4923 56.8901 33.3399 56.5204 32.9632 56.4167C32.6449 56.3311 32.1965 56.5294 32.1382 56.8901Z" fill="#727272"/>
<path d="M31.5597 65.0366C31.6046 65.5686 31.6539 66.1005 31.6988 66.628C31.766 67.3809 32.7749 67.5567 33.0215 66.8083C33.156 66.3936 33.3444 66.0194 33.582 65.6497C33.174 65.5956 32.7614 65.5415 32.3534 65.4874C32.5103 65.8796 32.618 66.2809 32.6763 66.7047C32.7435 67.1825 33.3219 67.2637 33.6627 67.1104C33.8331 67.0338 33.9721 66.885 34.0618 66.7227C34.1021 66.6506 34.1335 66.5649 34.1604 66.4883C34.1739 66.4477 34.1829 66.4071 34.1963 66.3665C34.2187 66.2989 34.2098 66.3034 34.1784 66.3801C34.0797 66.4387 33.9811 66.4973 33.8824 66.5559C33.9048 66.5469 33.9318 66.5424 33.9542 66.5333C33.8331 66.5333 33.7165 66.5333 33.5955 66.5333C33.5865 66.5288 33.5775 66.5243 33.573 66.5153C33.4923 66.4342 33.4116 66.353 33.3309 66.2719C33.3444 66.2899 33.3533 66.3079 33.3668 66.326C33.3444 66.1501 33.3219 65.9788 33.2995 65.803C33.295 65.8255 33.295 65.8481 33.2906 65.8661C33.2412 66.2268 33.3757 66.5919 33.7614 66.7001C34.0752 66.7858 34.5416 66.5919 34.5909 66.2268C34.6312 65.9337 34.6088 65.6677 34.3936 65.4468C34.2142 65.2665 33.9407 65.1808 33.6896 65.2079C33.4296 65.2394 33.2009 65.3927 33.0619 65.6136C33.0036 65.7083 32.9229 65.8391 32.9184 65.9473C32.9139 66.105 32.8466 65.9923 32.9901 65.9292C33.3175 66.0645 33.6493 66.1997 33.9766 66.335C33.9183 65.9157 33.8107 65.5145 33.6537 65.1177C33.4385 64.5857 32.757 64.4325 32.4251 64.9554C32.1292 65.4198 31.9005 65.9157 31.7301 66.4342C32.1696 66.4928 32.609 66.5559 33.0529 66.6145C33.0081 66.0825 32.9587 65.5505 32.9139 65.023C32.8825 64.6579 32.6269 64.3468 32.2413 64.3468C31.896 64.3603 31.5284 64.6714 31.5597 65.0366Z" fill="#727272"/>
<path d="M33.1785 74.5762C33.2233 75.3561 33.6134 76.0369 34.2905 76.4336C34.7389 76.6906 35.2949 76.3615 35.3038 75.8475C35.3083 75.4508 35.398 75.0856 35.5505 74.7204C35.1738 74.8196 34.8016 74.9188 34.425 75.018C34.6088 75.2434 34.8061 75.4418 35.0258 75.6266C35.3846 75.9287 36.0392 75.8701 36.1513 75.3291C36.1782 75.2073 36.2096 75.1037 36.25 74.9909C35.8733 75.0901 35.5011 75.1893 35.1245 75.2885C35.1648 75.266 35.1873 75.293 35.1828 75.3651C35.3263 75.7033 35.8195 75.7754 36.102 75.6086C36.4472 75.4057 36.4876 75.0225 36.3441 74.6844C36.2858 74.5491 36.1917 74.4274 36.0751 74.3327C35.6581 74.0036 35.1469 74.1253 34.9496 74.6303C34.9048 74.743 34.8734 74.8512 34.851 74.9684C35.2276 74.8692 35.5998 74.77 35.9764 74.6709C35.7567 74.486 35.5594 74.2831 35.3756 74.0622C35.0169 73.6204 34.425 73.9495 34.2501 74.3598C34.0528 74.8332 33.9631 75.3336 33.9542 75.8475C34.2905 75.6537 34.6268 75.4598 34.9675 75.2614C34.7075 75.1127 34.5371 74.8782 34.5192 74.5717C34.4743 73.7151 33.1291 73.7061 33.1785 74.5762Z" fill="#727272"/>
<path d="M35.9495 83.8497C36.1065 84.2555 36.2948 84.6297 36.5504 84.9858C36.9494 85.5358 37.7431 85.3329 37.8059 84.6432C37.8104 84.6026 37.8821 84.1022 37.8552 84.0796C37.6624 84.2014 37.4741 84.3231 37.2813 84.4448C37.3261 84.5079 37.3665 84.5665 37.4158 84.6251C37.5862 84.8415 37.7969 85.0264 38.0704 85.103C38.2812 85.1571 38.5278 85.1301 38.7116 85.0129C38.8327 84.9317 38.9179 84.837 38.9807 84.7063C39.0031 84.6522 39.0255 84.5981 39.0479 84.544C39.1511 84.2194 38.9538 84.1653 38.4605 84.3817C38.7296 85.2022 40.0299 84.8506 39.7564 84.021C39.5681 83.453 39.021 83.0833 38.4247 83.3087C38.1825 83.4034 37.9718 83.5837 37.8552 83.8182C37.8193 83.8903 37.6893 84.2014 37.7341 84.2915C37.9942 84.1428 38.2498 83.9895 38.5099 83.8407C38.474 83.7956 38.4381 83.755 38.4067 83.71C38.1915 83.2727 37.5682 83.0247 37.1198 83.187C36.4876 83.4124 36.5145 84.0887 36.4652 84.6477C36.8822 84.535 37.2992 84.4223 37.7207 84.3051C37.5368 84.0526 37.3709 83.7866 37.2544 83.4936C36.9315 82.6911 35.6312 83.0382 35.9495 83.8497Z" fill="#727272"/>
<path d="M43.1373 48.9825C42.653 49.3476 42.2495 49.7804 41.9849 50.335C41.6397 51.0563 42.4423 51.6243 43.0431 51.1555C43.1866 51.0428 43.3301 50.93 43.4736 50.8173C43.5364 50.7677 43.5991 50.7182 43.6664 50.6686C43.6978 50.6415 43.7292 50.619 43.7606 50.5919C43.8727 50.5108 43.8144 50.5243 43.5857 50.628C43.4736 50.5964 43.3615 50.5649 43.2449 50.5378C43.2584 50.5468 43.2718 50.5559 43.2853 50.5649C43.2045 50.4837 43.1238 50.4026 43.0431 50.3214C43.0297 50.2628 43.0117 50.2087 42.9983 50.1501C43.0028 50.087 43.0028 50.078 42.9893 50.1321C42.9579 50.1546 42.949 50.3079 42.949 50.3304C42.9176 50.5378 42.9355 50.7407 43.0431 50.93C43.1418 51.1014 43.3166 51.2546 43.5095 51.3042C43.5902 51.3268 43.6933 51.3358 43.7785 51.3358C43.8592 51.3358 43.9309 51.3223 44.0027 51.2952C44.0969 51.2682 44.0655 51.2592 43.904 51.2682C43.8054 51.2096 43.7067 51.151 43.6081 51.0923C43.6216 51.1059 43.635 51.1194 43.6485 51.1329C43.5902 51.0337 43.5319 50.9346 43.4736 50.8354C43.4781 50.8489 43.4826 50.8669 43.487 50.8805C43.5095 50.7046 43.5319 50.5333 43.5543 50.3575C43.5453 50.371 43.5408 50.3845 43.5319 50.3981C43.1238 51.1645 44.2852 51.8497 44.6932 51.0788C44.8681 50.7542 44.8277 50.3891 44.5542 50.1321C44.4107 49.9968 44.2179 49.9157 44.0206 49.9112C43.9085 49.9067 43.7785 49.9788 43.6798 49.9698C43.7919 50.0013 43.904 50.0329 44.0206 50.0599C44.0027 50.0464 43.9848 50.0329 43.9713 50.0239C44.052 50.105 44.1327 50.1862 44.2134 50.2673C44.2045 50.2493 44.1955 50.2313 44.1865 50.2132C44.2179 50.3259 44.2493 50.4386 44.2762 50.5559C44.2672 50.4702 44.2807 50.5153 44.3121 50.389C44.348 50.2313 44.3524 50.0599 44.3166 49.8976C44.2403 49.573 43.9982 49.3386 43.6754 49.28C43.3391 49.2169 43.1104 49.3927 42.8548 49.5911C42.5992 49.7894 42.3436 49.9923 42.088 50.1907C42.4423 50.4657 42.792 50.7362 43.1463 51.0112C43.3077 50.6776 43.5139 50.371 43.8144 50.1456C44.1058 49.9292 44.2538 49.5595 44.0565 49.2214C43.8906 48.9374 43.4332 48.7661 43.1373 48.9825Z" fill="#727272"/>
<path d="M40.5052 56.5925C40.3931 57.1335 40.2855 57.6745 40.1734 58.22C40.0344 58.9098 40.7787 59.3065 41.2989 58.8782C41.4513 58.752 41.5858 58.5942 41.6845 58.4229C41.7517 58.3057 41.8325 58.0667 41.8683 58.0081C41.7876 58.0893 41.7069 58.1704 41.6262 58.2516C41.6486 58.238 41.6665 58.2245 41.689 58.2065C41.5769 58.238 41.4648 58.2696 41.3482 58.2966C41.3751 58.2921 41.402 58.2921 41.4289 58.2876C41.3168 58.2561 41.2047 58.2245 41.0881 58.1975C40.9805 58.1479 40.976 57.972 41.0074 58.202C41.0164 58.2606 41.0298 58.3102 41.0478 58.3643C41.1105 58.5671 41.2226 58.7475 41.393 58.8737C41.55 58.9909 41.7338 59.054 41.9311 59.0495C42.0522 59.045 42.1643 59.0135 42.2719 58.9594C42.3302 58.9368 42.3795 58.9053 42.4243 58.8647C42.5409 58.7835 42.5095 58.788 42.3347 58.8692C42.2226 58.8376 42.1105 58.8061 41.9939 58.779C42.0118 58.788 42.0163 58.7971 42.0297 58.8331C42.3167 59.6491 43.6171 59.2975 43.3256 58.4725C43.2001 58.1163 43.0162 57.7872 42.6709 57.6114C42.4916 57.5167 42.2674 57.4897 42.0701 57.5347C41.8728 57.5798 41.7562 57.7106 41.5858 57.7917C41.6979 57.7602 41.81 57.7286 41.9266 57.7015C41.9042 57.7015 41.8773 57.7015 41.8549 57.7015C41.967 57.7331 42.0791 57.7647 42.1957 57.7917C42.3167 58.0036 42.3526 58.0352 42.3033 57.8864C42.2943 57.8278 42.2853 57.7692 42.2764 57.7106C42.245 57.5933 42.1957 57.4716 42.1329 57.3724C41.967 57.111 41.6935 56.9396 41.3841 56.9441C41.0792 56.9487 40.8011 57.1245 40.6577 57.3905C40.5366 57.6159 40.5456 57.7511 40.3393 57.9224C40.716 58.1434 41.0881 58.3598 41.4648 58.5807C41.5769 58.0397 41.6845 57.4987 41.7966 56.9577C41.9759 56.1011 40.6801 55.7404 40.5052 56.5925Z" fill="#727272"/>
<path d="M39.9851 63.5038C39.8461 64.2296 39.7564 64.96 39.734 65.6949C39.716 66.2088 40.3169 66.5334 40.7473 66.2809C40.9446 66.1637 41.0881 66.0059 41.1957 65.8031C41.2361 65.7264 41.3527 65.5506 41.3303 65.483C41.3258 65.4739 41.2854 65.5326 41.3034 65.5235C41.1913 65.5551 41.0792 65.5867 40.9626 65.6137C40.9536 65.6182 40.9402 65.6182 40.9312 65.6227C40.8505 65.5416 40.7698 65.4604 40.6891 65.3793C40.7653 65.4785 40.7563 65.4694 40.7653 65.5731C40.8146 66.1276 41.4782 66.4973 41.9132 66.051C41.9625 65.9969 42.0118 65.9473 42.0656 65.8977C41.9715 65.9428 41.8728 65.9338 41.7787 65.8797C41.7204 65.7805 41.6621 65.6813 41.6038 65.5821C41.6127 65.6092 41.6217 65.6362 41.6352 65.6633C41.7607 66.0059 42.0925 66.2404 42.4647 66.1367C42.792 66.0465 43.0611 65.6498 42.9355 65.3026C42.5858 64.3469 41.5679 64.4686 40.9626 65.0952C41.3437 65.253 41.7293 65.4153 42.1105 65.5731C42.0567 64.9194 41.7338 64.2116 40.9626 64.2612C40.6487 64.2792 40.3707 64.4641 40.2048 64.7301C40.1465 64.8247 40.1061 64.9329 40.0613 65.0366C40.012 65.1493 39.9268 65.1899 40.0658 65.1088C40.4021 65.3026 40.7384 65.4965 41.0792 65.6949C41.0971 65.0772 41.1644 64.4686 41.2809 63.86C41.4468 63.0124 40.151 62.6517 39.9851 63.5038Z" fill="#727272"/>
<path d="M40.6532 71.2265C40.8056 71.8306 40.9895 72.4212 41.2047 73.0028C41.3796 73.4762 41.9401 73.6745 42.3302 73.3004C42.5006 73.1335 42.6172 72.9397 42.6754 72.7053C42.6979 72.6106 42.7158 72.4979 42.7203 72.4032C42.7337 72.1147 42.7023 72.3536 42.7293 72.3401C42.6172 72.3716 42.5051 72.4032 42.3885 72.4303C42.4199 72.4303 42.4468 72.4257 42.4782 72.4257C42.3661 72.3942 42.254 72.3626 42.1374 72.3356C42.0477 72.295 42.0746 72.2544 42.1463 72.3807C42.1822 72.4438 42.2136 72.4979 42.2584 72.5565C42.3974 72.7368 42.5678 72.8585 42.7965 72.8901C42.9983 72.9172 43.1911 72.8676 43.3615 72.7503C43.4557 72.6827 43.5408 72.6061 43.6036 72.5069C43.6305 72.4528 43.6574 72.3987 43.6798 72.3446C43.7695 72.1688 43.6933 72.2139 43.4512 72.4844C43.3301 72.4844 43.2135 72.4844 43.0925 72.4844C43.0386 72.4393 42.9893 72.3897 42.9355 72.3446C42.9041 72.2319 42.8727 72.1192 42.8458 72.002C42.8458 72.029 42.8458 72.0561 42.8458 72.0831C42.8324 72.9532 44.1776 72.9532 44.191 72.0831C44.2 71.6278 43.8861 71.2716 43.4512 71.1814C43.218 71.1319 42.9848 71.1814 42.792 71.3212C42.6979 71.3888 42.6216 71.4655 42.5589 71.5601C42.5454 71.5872 42.532 71.6188 42.514 71.6458C42.3974 71.8712 42.4288 71.8667 42.6127 71.6323C42.7248 71.6007 42.8369 71.5692 42.9534 71.5421C42.931 71.5466 42.9086 71.5466 42.8862 71.5511C42.9983 71.5827 43.1104 71.6142 43.227 71.6413C43.4198 71.736 43.3211 71.7044 43.2494 71.5782C43.1956 71.479 43.1238 71.3843 43.0431 71.3122C42.7875 71.0823 42.4512 71.0237 42.1329 71.1364C41.8773 71.2265 41.6845 71.4249 41.5545 71.6548C41.4827 71.7856 41.4468 71.9163 41.4199 72.0606C41.4065 72.1237 41.4199 72.304 41.3796 72.3446C41.7562 72.4438 42.1284 72.543 42.5051 72.6421C42.2898 72.0606 42.106 71.4655 41.9535 70.8659C41.7338 70.0273 40.438 70.3835 40.6532 71.2265Z" fill="#727272"/>
<path d="M41.3303 77.687C41.5724 78.4038 41.8818 79.0935 42.2629 79.7427C42.5364 80.2071 43.1418 80.153 43.4243 79.7427C43.5005 79.63 43.5543 79.5128 43.5902 79.3821C43.5946 79.3415 43.5991 79.3054 43.6081 79.2649C43.6798 79.0034 43.6171 79.0124 43.4108 79.2964C43.2897 79.2964 43.1732 79.2964 43.0521 79.2964C42.8638 79.2378 42.949 79.2513 43.0476 79.3595C43.1193 79.4362 43.209 79.5173 43.3032 79.5714C43.496 79.6796 43.7247 79.7202 43.9444 79.7022C44.4466 79.6661 44.7919 79.3325 44.9578 78.8772C45.2582 78.0611 43.9578 77.705 43.6619 78.5165C43.7471 78.2911 43.9578 78.4173 43.922 78.3091C43.8951 78.2325 43.7381 78.1288 43.6664 78.0882C43.4467 77.962 43.1821 77.9349 42.9445 78.0161C42.7248 78.0882 42.5499 78.255 42.4378 78.4579C42.3391 78.6382 42.366 78.9087 42.2584 79.062C42.6441 79.062 43.0342 79.062 43.4198 79.062C43.0924 78.5075 42.8279 77.9394 42.6216 77.3308C42.3526 76.5103 41.0523 76.8619 41.3303 77.687Z" fill="#727272"/>
<path d="M43.1014 85.4007C43.1059 85.7748 43.1597 86.149 43.2763 86.5007C43.3615 86.7577 43.5633 86.947 43.8368 86.9831C44.0834 87.0146 44.3928 86.9019 44.5049 86.6585C44.5811 86.4962 44.6573 86.3339 44.7336 86.1761C44.7694 86.0994 44.8053 86.0273 44.8367 85.9507C44.8546 85.9146 44.8726 85.874 44.8905 85.838C44.9264 85.7703 44.9264 85.7703 44.8905 85.838C44.7919 85.8966 44.6932 85.9552 44.5946 86.0138C44.608 86.0093 44.626 86.0003 44.6394 85.9958C44.5183 85.9958 44.4018 85.9958 44.2807 85.9958C44.2583 85.9867 44.2314 85.9732 44.2089 85.9642C44.1282 85.883 44.0475 85.8019 43.9668 85.7207C43.8996 85.608 43.9623 85.7027 43.9892 85.7794C44.0117 85.8515 44.0386 85.9191 44.061 85.9912C44.1103 86.131 44.1596 86.2753 44.2045 86.415C44.321 86.7622 44.6663 86.9876 45.034 86.8884C45.3658 86.7982 45.6214 86.4015 45.5048 86.0544C45.312 85.4953 45.1506 84.5756 44.3704 84.6793C43.765 84.7605 43.5633 85.4998 43.3391 85.9777C43.7471 86.0318 44.1596 86.0859 44.5677 86.14C44.4825 85.874 44.4421 85.6576 44.4376 85.3961C44.4331 85.0445 44.1327 84.7019 43.765 84.7199C43.4108 84.7379 43.0969 85.022 43.1014 85.4007Z" fill="#727272"/>
<path d="M49.2803 86.2211C49.2444 86.5277 49.2085 86.8387 49.1727 87.1453C49.1368 87.4338 49.4058 87.7269 49.6659 87.799C49.9708 87.8847 50.2533 87.7359 50.4237 87.4879C50.5447 87.3121 50.6658 87.1408 50.7869 86.965C50.8407 86.8838 50.899 86.8072 50.9528 86.726C50.9752 86.6945 50.9976 86.6629 51.02 86.6314C51.1187 86.4961 51.1052 86.5051 50.9842 86.6584C50.8721 86.69 50.76 86.7215 50.6434 86.7486C50.6658 86.7486 50.6837 86.7486 50.7062 86.7486C50.5941 86.717 50.482 86.6855 50.3654 86.6584C50.2309 86.424 50.186 86.3789 50.2309 86.5232C50.2443 86.5773 50.2533 86.6359 50.2667 86.69C50.2892 86.8027 50.3116 86.9109 50.3385 87.0236C50.3878 87.258 50.4102 87.533 50.5313 87.7449C50.6479 87.9433 50.8407 88.1146 51.0649 88.1777C51.4101 88.2724 51.6926 88.0966 51.8944 87.8261C52.1141 87.533 51.9392 87.0687 51.6523 86.9019C51.307 86.699 50.9528 86.8523 50.7331 87.1453C50.7241 87.1588 50.7151 87.1724 50.7062 87.1814C50.899 87.0687 51.0918 86.956 51.2891 86.8478C51.2756 86.8478 51.2622 86.8523 51.2487 86.8523C51.3608 86.8838 51.4729 86.9154 51.5895 86.9424C51.7061 87.001 51.7778 87.3302 51.7106 86.9965C51.6926 86.9019 51.6702 86.8117 51.6523 86.717C51.6164 86.5502 51.585 86.3834 51.5491 86.2166C51.4684 85.865 51.2577 85.5223 50.89 85.4186C50.482 85.3059 50.1591 85.5404 49.9304 85.8469C49.7018 86.158 49.4865 86.4781 49.2668 86.7937C49.6838 86.9064 50.1008 87.0191 50.5223 87.1363C50.5582 86.8297 50.5941 86.5187 50.6299 86.2121C50.6703 85.8469 50.2892 85.5358 49.9573 85.5358C49.5583 85.5449 49.3251 85.8604 49.2803 86.2211Z" fill="#727272"/>
<path d="M49.926 73.8729C49.7601 74.5942 49.6794 75.3336 49.6928 76.0729C49.7018 76.7086 50.6344 77.0377 50.9483 76.4156C51.0828 76.1451 51.2173 75.8791 51.3519 75.6086C51.4505 75.4102 51.5223 75.1623 51.7016 75.0225C51.603 75.0811 51.5043 75.1397 51.4057 75.1983C51.4057 75.1938 51.4057 75.1893 51.4102 75.1848C51.1949 75.018 50.9797 74.8557 50.76 74.6889C50.8452 75.009 50.9304 75.3291 51.0156 75.6491C51.1232 76.0504 51.6388 76.2938 52.002 76.0549C52.0648 76.0143 52.1276 75.9692 52.1904 75.9287C52.9078 75.4508 52.2352 74.2786 51.5133 74.761C51.4505 74.8016 51.3877 74.8467 51.325 74.8872C51.6523 75.0225 51.9841 75.1577 52.3114 75.293C52.2262 74.9729 52.141 74.6528 52.0558 74.3327C51.9796 74.0487 51.7016 73.8323 51.4057 73.8368C50.4596 73.8548 50.1367 75.036 49.787 75.7393C50.204 75.852 50.621 75.9647 51.0425 76.0819C51.0335 75.4553 51.0873 74.8512 51.2263 74.238C51.4146 73.386 50.1188 73.0253 49.926 73.8729Z" fill="#727272"/>
<path d="M48.6436 63.7562C48.6749 64.2882 48.7019 64.8156 48.7332 65.3476C48.7691 66.0148 49.6211 66.2718 49.9887 65.6902C50.2488 65.2755 50.5089 64.8652 50.769 64.4505C50.3833 64.4505 49.9932 64.4505 49.6076 64.4505C49.7018 64.6128 49.7601 64.7615 49.769 64.9509C49.8004 65.546 50.4775 65.83 50.9169 65.4288C51.2577 65.1222 51.4774 64.7525 51.6433 64.3242C51.316 64.4595 50.9842 64.5947 50.6569 64.73C50.6569 64.739 50.6569 64.748 50.6524 64.7525C50.5941 64.6533 50.5358 64.5542 50.4775 64.455C50.4909 64.482 50.4999 64.5136 50.5134 64.5406C50.6524 64.8787 50.9573 65.1177 51.3429 65.014C51.6568 64.9283 51.9527 64.5226 51.8137 64.18C51.6971 63.905 51.5761 63.7381 51.3339 63.5578C50.9528 63.2738 50.4865 63.5984 50.3475 63.9636C50.2667 64.1709 50.1277 64.3242 49.9663 64.473C50.3475 64.6308 50.7331 64.7931 51.1142 64.9509C51.0918 64.5271 50.9842 64.1349 50.769 63.7697C50.5044 63.3234 49.8766 63.3414 49.6076 63.7697C49.3475 64.1845 49.0875 64.5947 48.8274 65.0095C49.2444 65.1222 49.6614 65.2349 50.0829 65.3521C50.0515 64.8201 50.0246 64.2927 49.9932 63.7607C49.9394 62.8906 48.5942 62.8861 48.6436 63.7562Z" fill="#727272"/>
<path d="M49.0068 54.8162C48.9664 55.1589 48.9485 55.5015 48.9574 55.8441C48.9709 56.313 49.5359 56.7458 49.9708 56.4302C50.195 56.2679 50.334 56.0831 50.4102 55.8171C50.4282 55.754 50.4461 55.6818 50.4551 55.6187C50.464 55.5601 50.4999 55.5556 50.4506 55.6007C50.2174 55.8171 49.9708 56.1281 49.5986 55.6773C49.639 55.7269 49.6255 55.7224 49.5986 55.6638C49.63 55.7314 49.6524 55.8081 49.6838 55.8757C49.7376 55.9929 49.8184 56.0966 49.908 56.1868C50.186 56.4618 50.5986 56.5159 50.9349 56.322C51.2532 56.1417 51.3563 55.7089 51.177 55.3978C50.9887 55.0777 50.5761 54.974 50.2578 55.1543C50.2443 55.1634 50.2264 55.1724 50.2129 55.1814C50.325 55.1498 50.4371 55.1183 50.5537 55.0912C50.5896 55.0867 50.9124 55.2671 50.8855 55.2761C50.9035 55.3121 50.9035 55.3121 50.89 55.2806C50.8766 55.2445 50.8631 55.2084 50.8452 55.1724C50.7914 55.0416 50.7286 54.9199 50.6299 54.8117C50.4102 54.5818 50.0695 54.4691 49.7601 54.5683C49.4686 54.6584 49.2758 54.8929 49.1816 55.1769C49.1592 55.24 49.1502 55.3031 49.1323 55.3707C49.1233 55.4023 49.1144 55.4294 49.1099 55.4609C49.092 55.5195 49.092 55.5195 49.1144 55.4609C49.1413 55.3753 49.1996 55.3076 49.2892 55.2625C49.6255 55.4564 49.9618 55.6503 50.3026 55.8486C50.2936 55.506 50.3116 55.1634 50.3519 54.8207C50.3968 54.4691 50.0112 54.131 49.6793 54.1445C49.2803 54.1625 49.0561 54.442 49.0068 54.8162Z" fill="#727272"/>
<path d="M48.5942 47.8824C48.4687 48.3783 48.5315 48.8877 48.796 49.325C49.1099 49.857 49.8318 49.6947 50.0246 49.1627C50.0964 48.9644 49.9887 49.2845 50.056 49.0816C50.0829 49.005 50.1053 49.041 50.0381 49.0726C49.8318 49.1808 49.5538 49.1086 49.491 48.8381C49.5762 49.1943 49.9753 49.4062 50.3205 49.3115C50.6793 49.2123 50.8766 48.8381 50.7914 48.4775C50.6703 47.9635 50.1143 47.6885 49.6166 47.8057C49.1278 47.9275 48.8902 48.3558 48.7288 48.7976C49.1368 48.7435 49.5493 48.6894 49.9573 48.6353C49.8901 48.5181 49.8811 48.5271 49.8677 48.3873C49.8766 48.4594 49.8722 48.3693 49.8722 48.3467C49.8811 48.1484 49.8453 48.4279 49.8901 48.234C49.9753 47.8914 49.778 47.4857 49.4193 47.4C49.074 47.3279 48.6884 47.5127 48.5942 47.8824Z" fill="#727272"/>
<path d="M29.3671 46.2865C29.1698 46.548 28.9905 46.823 28.8335 47.1116C28.569 47.5849 29.0174 48.3243 29.5913 48.1034C29.7976 48.0267 29.9993 47.9456 30.2056 47.869C29.9321 47.7112 29.6541 47.5534 29.3761 47.3956C29.4119 47.4993 29.4299 47.5669 29.4254 47.6706C29.4209 48.0132 29.7393 48.3784 30.098 48.3468C30.4343 48.3198 30.7213 48.2386 31.0217 48.0944C31.349 47.9366 31.4342 47.4632 31.2638 47.1702C31.0665 46.832 30.6719 46.7689 30.3446 46.9267C30.2773 46.9583 30.1518 46.9898 30.098 46.9943C30.3222 47.2198 30.5464 47.4452 30.7706 47.6706C30.7751 47.4542 30.7437 47.2378 30.6719 47.0349C30.5598 46.7148 30.2056 46.4263 29.8424 46.5615C29.6361 46.6382 29.4344 46.7193 29.2281 46.796C29.4792 47.1251 29.7348 47.4587 29.9859 47.7878C30.1473 47.4993 30.3222 47.2243 30.5195 46.9628C30.7392 46.6697 30.5643 46.2054 30.2773 46.0386C29.941 45.8447 29.5868 45.9935 29.3671 46.2865Z" fill="#727272"/>
<path d="M25.5602 53.8785C25.3047 54.4421 25.085 55.0191 24.9056 55.6142C24.7935 55.9839 25.0401 56.3266 25.3764 56.4483C25.6634 56.552 25.9728 56.4889 26.2239 56.3266C26.3315 56.2544 26.4032 56.1823 26.4839 56.0876C26.7933 55.7179 26.3674 56.1958 26.1163 55.8847C26.058 55.7856 25.9997 55.6864 25.9414 55.5872C25.9055 55.461 25.9324 55.7224 25.9324 55.7179C25.9459 55.8216 25.9728 55.9298 26.0266 56.0245C26.1297 56.2003 26.318 56.3446 26.5108 56.3987C26.874 56.4979 27.3404 56.3581 27.4973 55.9884C27.6408 55.6548 27.596 55.2626 27.2552 55.0642C26.9727 54.8974 26.4795 54.9696 26.336 55.3077C26.3494 55.2896 26.3629 55.2716 26.3808 55.2581C26.4795 55.1995 26.5781 55.1409 26.6768 55.0823C26.8113 55.1228 26.9458 55.1634 27.0803 55.204C27.1386 55.3032 27.1969 55.4024 27.2552 55.5015C27.2911 55.6278 27.2641 55.3167 27.2552 55.2851C27.2193 55.1499 27.1565 55.0282 27.0669 54.929C26.9009 54.7532 26.6857 54.6495 26.4436 54.6359C26.2239 54.6269 26.0221 54.69 25.8427 54.8163C25.7575 54.8749 25.6858 54.9425 25.6185 55.0237C25.3405 55.3483 25.5333 55.0732 25.7396 55.1454C25.8965 55.4249 26.0535 55.6999 26.2104 55.9794C26.3539 55.497 26.5243 55.0282 26.7306 54.5683C26.8785 54.2347 26.8247 53.8425 26.4884 53.6441C26.1925 53.4683 25.7082 53.5449 25.5602 53.8785Z" fill="#727272"/>
<path d="M24.0716 61.8537C23.9281 62.6291 23.9281 63.382 24.0805 64.1575C24.1568 64.5407 24.5693 64.6849 24.9101 64.6308C25.1074 64.5993 25.2912 64.4866 25.4302 64.3378C25.4885 64.2747 25.5423 64.198 25.5916 64.1259C25.6185 64.0853 25.641 64.0447 25.6634 63.9997C25.7037 63.9365 25.6903 63.9411 25.6141 64.0042C25.493 64.0042 25.3764 64.0042 25.2553 64.0042C25.2867 64.0132 25.3181 64.0222 25.3495 64.0312C25.2509 63.9726 25.1522 63.914 25.0536 63.8554C25.0042 63.7517 24.9998 63.7562 25.0446 63.8689C25.067 63.923 25.0894 63.9771 25.1119 64.0312C25.1836 64.1665 25.2822 64.2747 25.4078 64.3558C25.7082 64.5587 25.9817 64.5452 26.3046 64.3964C26.6364 64.2476 26.7171 63.7607 26.5467 63.4722C26.3494 63.1296 25.9593 63.08 25.6275 63.2287C25.6051 63.2378 25.5782 63.2513 25.5558 63.2603C25.7306 63.2378 25.901 63.2152 26.0759 63.1927C26.049 63.1837 26.0221 63.1791 25.9952 63.1701C26.0938 63.2287 26.1925 63.2873 26.2911 63.346C26.318 63.4361 26.318 63.4451 26.2956 63.3775C26.2732 63.3054 26.2463 63.2378 26.2149 63.1746C26.1745 63.098 26.1297 63.0214 26.0669 62.9582C25.8786 62.7554 25.6185 62.6607 25.345 62.6877C25.1074 62.7103 24.8966 62.8275 24.7307 62.9988C24.65 63.08 24.5827 63.1746 24.5245 63.2738C24.511 63.3009 24.4931 63.3279 24.4796 63.355C24.3944 63.4812 24.4168 63.4677 24.5514 63.3189C24.8249 63.4767 25.1029 63.6345 25.3809 63.7923C25.2778 63.2693 25.2733 62.7328 25.3719 62.2099C25.4392 61.8492 25.2733 61.4795 24.9011 61.3758C24.5693 61.2902 24.1388 61.493 24.0716 61.8537Z" fill="#727272"/>
<path d="M25.0311 71.6142C25.2195 71.9929 25.4033 72.3716 25.5916 72.7503C25.7575 73.0839 26.2104 73.1605 26.5108 72.9937C26.753 72.8585 26.9189 72.6421 26.9951 72.3716C27.031 72.2498 27.0534 72.0966 27.0399 71.9703C27.0265 71.8261 27.0893 71.8666 27.013 71.9343C26.9144 71.9929 26.8158 72.0515 26.7171 72.1101C26.7081 72.1146 26.6992 72.1146 26.6902 72.1191C26.5781 72.0875 26.466 72.056 26.3494 72.0289C26.5826 72.1642 26.6947 72.3806 27.0355 72.3806C27.439 72.3806 27.5287 72.1416 27.7708 71.9027C27.6722 71.9613 27.5735 72.0199 27.4749 72.0785C27.3449 71.9974 27.2148 71.9162 27.0848 71.8306C27.1386 72.1912 27.5915 72.3896 27.9143 72.3039C28.2999 72.1957 28.4389 71.8351 28.3851 71.4699C28.3224 71.0642 27.9412 70.7621 27.5466 70.7215C27.0848 70.6764 26.7844 70.9289 26.5647 71.3076C26.6454 71.2265 26.7261 71.1453 26.8068 71.0642C26.7844 71.0822 26.7575 71.1002 26.735 71.1183C26.8471 71.0867 26.9592 71.0551 27.0758 71.0281C27.0534 71.0281 27.0265 71.0281 27.0041 71.0281C27.1162 71.0596 27.2283 71.0912 27.3449 71.1183C27.2641 71.0732 27.0534 70.8432 26.874 70.7937C26.6185 70.7215 26.3494 70.7756 26.1387 70.9334C25.9504 71.0732 25.8203 71.2806 25.7531 71.5015C25.7082 71.6412 25.7575 71.9252 25.6858 72.0244C25.7665 71.9433 25.8472 71.8621 25.9279 71.781C25.901 71.7945 25.8741 71.8125 25.8427 71.8261C26.1476 71.9072 26.457 71.9884 26.7619 72.0695C26.5736 71.6908 26.3898 71.3121 26.2015 70.9334C25.8069 70.149 24.6455 70.8342 25.0311 71.6142Z" fill="#727272"/>
<path d="M29.1833 81.6587C29.1608 82.2403 29.7617 82.5694 30.2684 82.4116C30.5105 82.335 30.6854 82.1636 30.802 81.9472C30.8199 81.9112 30.8378 81.8706 30.8558 81.8345C30.9544 81.6767 30.8558 81.7218 30.5509 81.9788C30.4119 81.9608 30.4746 81.9608 30.5733 82.0149C30.8916 82.1907 31.3087 82.0915 31.4925 81.7714C31.6719 81.4603 31.5687 81.023 31.2504 80.8472C30.9186 80.6624 30.5419 80.5542 30.1742 80.7075C29.9859 80.7886 29.829 80.9238 29.7213 81.1042C29.69 81.1538 29.6586 81.2124 29.6406 81.271C29.6317 81.289 29.6227 81.3071 29.6137 81.3251C29.8469 81.0636 30.089 81.0411 30.3446 81.2575C30.4029 81.3566 30.4612 81.4558 30.5195 81.555C30.524 81.5911 30.5285 81.6271 30.5329 81.6632C30.5464 81.3071 30.2146 80.9689 29.8603 80.987C29.4792 81.0005 29.1967 81.28 29.1833 81.6587Z" fill="#727272"/>
<path d="M54.0377 48.1575C54.1185 48.5632 54.2575 48.9419 54.4323 49.3161C54.5982 49.6633 55.0511 49.7083 55.3515 49.5596C55.5219 49.4739 55.6609 49.3206 55.7506 49.1538C55.7775 49.1042 55.7955 49.0501 55.8224 48.996C55.9658 48.685 55.8179 49.1538 55.4726 49.1178C55.3605 49.0862 55.2484 49.0546 55.1318 49.0276C55.0556 48.9915 55.2439 49.1132 55.2439 49.1132C55.3157 49.1673 55.365 49.1989 55.4502 49.235C55.6251 49.3116 55.8044 49.3251 55.9927 49.2981C56.3963 49.2305 56.634 48.969 56.7864 48.6038C56.9254 48.2657 56.634 47.8599 56.3156 47.7698C55.93 47.6616 55.6295 47.905 55.4861 48.2431C55.643 47.9501 55.8403 47.887 56.0735 48.0538C56.0555 48.0358 56.0376 48.0177 56.0152 48.0042C55.93 47.9185 55.7686 47.8284 55.652 47.7968C55.4367 47.7382 55.2036 47.7743 55.0152 47.887C54.8583 47.9817 54.7462 48.1304 54.67 48.2927C54.6521 48.3333 54.6296 48.3784 54.6117 48.4235C54.5624 48.5677 54.5893 48.4325 54.67 48.3964C54.9749 48.4776 55.2843 48.5587 55.5892 48.6399C55.4636 48.3739 55.3874 48.0944 55.3291 47.8058C55.2619 47.4452 54.8314 47.2423 54.4996 47.3325C54.1364 47.4271 53.9705 47.7968 54.0377 48.1575Z" fill="#727272"/>
<path d="M55.5981 55.8982C55.6833 56.3265 55.773 56.7548 55.8582 57.183C56.0017 57.8908 56.9478 57.7601 57.1541 57.183C57.2213 56.9892 57.3379 56.863 57.4859 56.7277C57.1317 56.6826 56.7819 56.6375 56.4277 56.5925C56.5443 56.863 56.6653 57.138 56.7819 57.4085C56.9164 57.7195 57.4366 57.8548 57.7011 57.6519C57.8625 57.5302 57.9926 57.422 58.0957 57.2416C58.1316 57.1785 58.1719 57.1019 58.1943 57.0298C58.2033 56.9982 58.2168 56.9666 58.2347 56.9396C58.3423 56.7412 58.1361 56.6781 57.6114 56.7502C57.5621 57.1109 57.9567 57.4265 58.284 57.4265C58.6876 57.4265 58.9073 57.1154 58.9566 56.7502C59.0328 56.1867 58.5082 55.6773 57.9657 55.6773C57.6921 55.6773 57.4455 55.799 57.2617 55.9928C57.1765 56.083 57.1182 56.1822 57.0599 56.2904C57.024 56.3625 56.885 56.5879 57.024 56.4843C57.3289 56.5654 57.6383 56.6466 57.9432 56.7277C57.8267 56.4572 57.7056 56.1822 57.589 55.9117C57.4052 55.4879 56.8178 55.515 56.5308 55.7764C56.208 56.0695 56.0017 56.4211 55.8537 56.8269C56.2842 56.8269 56.7191 56.8269 57.1496 56.8269C57.0644 56.3986 56.9747 55.9703 56.8895 55.542C56.7236 54.6854 55.4233 55.0461 55.5981 55.8982Z" fill="#727272"/>
<path d="M56.7774 66.2403C56.7371 66.5785 56.7774 66.9256 56.8671 67.2502C56.9792 67.6424 57.4904 67.9084 57.8536 67.6559C58.0912 67.4891 58.2347 67.3088 58.3378 67.0383C58.3647 66.9707 58.3872 66.8985 58.4096 66.8264C58.4499 66.6821 58.4096 66.876 58.293 66.894C58.1719 66.894 58.0553 66.894 57.9343 66.894C57.8222 66.849 57.7504 66.7813 57.7325 66.6821C57.719 66.6371 57.7235 66.6506 57.7504 66.7227C57.7639 66.7633 57.7773 66.8084 57.7908 66.849C57.867 67.0563 57.9746 67.2231 58.145 67.3629C58.5127 67.6604 58.9297 67.6109 59.2884 67.3313C59.5754 67.1059 59.5216 66.61 59.2884 66.3756C59.0059 66.0916 58.6248 66.1502 58.3378 66.3756C58.3244 66.3891 58.3064 66.3981 58.293 66.4116C58.3916 66.353 58.4903 66.2944 58.5889 66.2358C58.571 66.2403 58.5531 66.2448 58.5351 66.2493C58.6562 66.2493 58.7728 66.2493 58.8938 66.2493C58.9746 66.2629 59.0911 66.5108 59.0418 66.3621C59.0059 66.2448 58.9611 66.1231 58.8983 66.0194C58.71 65.7129 58.3782 65.537 58.024 65.5731C57.7101 65.6047 57.4545 65.803 57.2841 66.0645C57.2124 66.1772 57.163 66.3034 57.1227 66.4297C57.1092 66.4703 57.0823 66.5289 57.0778 66.5694C57.0734 66.628 57.0644 66.5559 57.1765 66.4793C57.5038 66.6145 57.8356 66.7498 58.163 66.885C58.1002 66.6641 58.0912 66.4657 58.1181 66.2358C58.1585 65.8706 57.7773 65.5596 57.4455 65.5596C57.0554 65.5641 56.8223 65.8752 56.7774 66.2403Z" fill="#727272"/>
<path d="M56.4053 74.202C56.3694 74.6438 56.4053 75.0766 56.4725 75.5139C56.5532 76.0233 57.2751 76.1541 57.598 75.8115C57.7146 75.6897 57.8356 75.568 57.9612 75.4553C58.0733 75.3561 58.1899 75.2569 58.2796 75.1938C57.9522 75.0586 57.6204 74.9233 57.2931 74.7881C57.3334 74.9053 57.3334 74.77 57.32 74.8963C57.329 74.8016 57.2662 74.9819 57.311 74.9053C57.1361 75.2254 57.2348 75.6446 57.5532 75.8295C57.8625 76.0098 58.2975 75.9106 58.4724 75.586C58.6652 75.2299 58.7279 74.8151 58.5934 74.4274C58.4634 74.0577 57.9791 73.7466 57.607 74.0217C57.2662 74.2741 56.9478 74.5446 56.6564 74.8512C57.033 74.9504 57.4052 75.0495 57.7818 75.1487C57.737 74.8557 57.737 74.5131 57.7594 74.193C57.7863 73.8413 57.4321 73.5032 57.0868 73.5167C56.6922 73.5438 56.4367 73.8233 56.4053 74.202Z" fill="#727272"/>
<path d="M55.9748 83.0338C55.7327 83.4441 55.5488 83.8949 55.4457 84.3638C55.365 84.7199 55.5533 85.0941 55.9165 85.1978C56.2932 85.3015 56.616 85.0716 56.746 84.7244C56.7864 84.6117 56.9209 84.3683 56.9927 84.2736C56.6743 84.2736 56.3604 84.2736 56.0421 84.2736C55.9613 84.1744 55.9389 84.0662 55.9703 83.94C55.912 84.3006 56.0645 84.6658 56.4411 84.774C56.764 84.8642 57.2079 84.6658 57.2707 84.3006C57.3334 83.9265 57.2662 83.5973 56.9971 83.3178C56.764 83.0744 56.2707 83.0338 56.0465 83.3178C55.7865 83.6424 55.5982 83.9715 55.4502 84.3638C55.8806 84.4855 56.3156 84.6027 56.746 84.7244C56.8312 84.3457 56.9433 84.0482 57.1406 83.7191C57.3245 83.4035 57.2124 82.9752 56.8985 82.7949C56.5801 82.6055 56.1631 82.7182 55.9748 83.0338Z" fill="#727272"/>
<path d="M60.8982 85.7343C60.6202 86.0995 60.4901 86.5503 60.4677 87.0056C60.4543 87.2716 60.6471 87.5286 60.8802 87.6233C61.1448 87.7315 61.4004 87.6684 61.6156 87.4835C61.9474 87.1995 62.2792 86.911 62.611 86.6269C62.2568 86.5818 61.9071 86.5368 61.5528 86.4917C61.5259 86.4511 61.5394 86.3925 61.5439 86.3474C61.5483 86.3159 61.6201 86.2077 61.5483 86.3204C61.3555 86.6314 61.4811 87.0642 61.7905 87.2446C62.1133 87.4339 62.5169 87.3122 62.7097 87.0011C62.9384 86.6359 62.9339 86.1716 62.7142 85.8019C62.4765 85.4052 61.9878 85.3826 61.656 85.6667C61.3241 85.9507 60.9923 86.2392 60.6605 86.5232C61.0417 86.681 61.4273 86.8433 61.8084 87.0011C61.8174 86.7982 61.7725 87.0913 61.8174 86.8974C61.8353 86.8298 61.8533 86.7577 61.8757 86.69C61.8398 86.7847 61.9295 86.5954 61.9295 86.5909C61.9654 86.5277 62.0057 86.4691 62.0505 86.415C62.2703 86.122 62.0954 85.6576 61.8084 85.4908C61.4721 85.288 61.1224 85.4412 60.8982 85.7343Z" fill="#727272"/>
<path d="M63.3823 76.8799C63.2881 77.3939 63.2343 77.9123 63.2298 78.4398C63.2208 79.1025 64.158 79.373 64.4853 78.7824C64.6871 78.4128 64.9247 78.0927 65.2207 77.7951C64.9472 77.8312 64.6781 77.8673 64.4046 77.8988C64.3912 77.8898 64.3732 77.8763 64.3598 77.8673C64.3015 77.7681 64.2432 77.6689 64.1849 77.5697C64.1714 77.5291 64.2163 77.4029 64.1714 77.5472C64.1401 77.6373 64.1221 77.7816 64.1176 77.8673C64.1087 78.0837 64.1714 78.2955 64.297 78.4714C64.4405 78.6652 64.6781 78.796 64.9247 78.796C65.0593 78.796 65.2162 78.7554 65.3328 78.6923C65.3552 78.6788 65.3731 78.6697 65.3956 78.6562C65.5032 78.5886 65.4718 78.5841 65.3014 78.6427C65.1893 78.6111 65.0772 78.5796 64.9606 78.5525C64.7813 78.4624 64.7678 78.3587 64.7857 78.2279C64.7364 78.5886 64.8754 78.9538 65.2566 79.062C65.5704 79.1476 66.0323 78.9538 66.0861 78.5886C66.1399 78.2009 66.122 77.8086 65.826 77.5156C65.678 77.3713 65.4538 77.2857 65.2476 77.2902C65.1131 77.2947 64.9561 77.3398 64.8395 77.4029C64.8082 77.4209 64.6602 77.4841 64.7454 77.466C64.8665 77.466 64.983 77.466 65.1041 77.466C65.0862 77.4615 65.0637 77.4525 65.0458 77.448C65.1445 77.5066 65.2431 77.5652 65.3417 77.6238C65.3866 77.998 65.4269 78.0927 65.4673 77.9078C65.4852 77.8628 65.4942 77.8177 65.5032 77.7681C65.5256 77.6644 65.5346 77.5562 65.5256 77.448C65.5077 77.1504 65.3552 76.8664 65.0817 76.7357C64.8126 76.6004 64.4898 76.6185 64.2656 76.8394C63.8934 77.2136 63.5751 77.6373 63.3195 78.0972C63.7365 78.2099 64.1535 78.3226 64.575 78.4398C64.5795 78.0386 64.6109 77.6373 64.6826 77.2406C64.7454 76.8799 64.584 76.5103 64.2118 76.4066C63.88 76.3164 63.445 76.5193 63.3823 76.8799Z" fill="#727272"/>
<path d="M64.288 67.5703C64.0952 68.0347 64.0907 68.5621 64.2387 69.04C64.445 69.6982 65.3148 69.6667 65.5346 69.04C65.6467 68.7154 65.8484 68.4584 66.104 68.233C65.7229 68.0752 65.3373 67.9129 64.9561 67.7551C64.9696 67.9851 64.9875 68.215 65.001 68.4404C65.0279 68.8371 65.2879 69.0716 65.6736 69.1167C65.8888 69.1437 66.0861 69.0716 66.2654 68.9544C66.3417 68.9048 66.4089 68.8462 66.4672 68.7785C66.4896 68.747 66.5165 68.7199 66.539 68.6929C66.6197 68.6072 66.5524 68.6252 66.3327 68.747C66.2206 68.7154 66.1085 68.6839 65.9919 68.6568C65.956 68.6162 65.9157 68.5757 65.8798 68.5351C65.8484 68.4224 65.817 68.3097 65.7901 68.1925C65.7901 68.2105 65.7901 68.2285 65.7946 68.2466C65.826 68.1338 65.8574 68.0211 65.8843 67.9039C65.8753 67.9174 65.8664 67.9355 65.8574 67.949C65.4 68.6929 66.5659 69.3736 67.0187 68.6298C67.2878 68.1925 67.0636 67.6244 66.5928 67.4531C66.3461 67.3629 66.095 67.381 65.8664 67.5072C65.7722 67.5568 65.6915 67.6289 65.6153 67.7056C65.5973 67.7236 65.5839 67.7461 65.5659 67.7642C65.4763 67.8543 65.5121 67.8543 65.6736 67.7642C65.8978 67.9896 66.122 68.215 66.3461 68.4404C66.3327 68.2105 66.3148 67.9806 66.3013 67.7551C66.261 67.1555 65.6018 66.8805 65.1534 67.2773C64.723 67.6605 64.427 68.1384 64.2387 68.6793C64.6692 68.6793 65.1041 68.6793 65.5346 68.6793C65.4494 68.4043 65.4763 68.1925 65.5839 67.931C65.7229 67.5928 65.4314 67.1871 65.1131 67.0969C64.7274 66.9887 64.427 67.2322 64.288 67.5703Z" fill="#727272"/>
<path d="M63.7275 55.7178C63.7634 56.0965 63.8038 56.4797 63.8396 56.8584C63.871 57.1921 64.0683 57.4806 64.4226 57.5212C64.7454 57.5617 65.0772 57.3679 65.1624 57.0388C65.2341 56.7502 65.3328 56.4888 65.4763 56.2318C65.0907 56.2318 64.7006 56.2318 64.3149 56.2318C64.3822 56.358 64.4495 56.4842 64.5122 56.606C64.7588 57.0703 65.4135 57.0162 65.6736 56.606C65.696 56.5699 65.7274 56.5383 65.7274 56.5248C65.7991 56.4617 65.7498 56.4662 65.5884 56.5383C65.5166 56.5789 65.4449 56.5879 65.3731 56.5744C65.2924 56.4933 65.2117 56.4121 65.131 56.331C65.1265 56.3129 65.122 56.2949 65.1176 56.2769C65.3776 57.1019 66.678 56.7502 66.4134 55.9162C66.2789 55.4924 65.9112 55.2264 65.4628 55.24C65.0279 55.2535 64.723 55.5781 64.5077 55.9207C64.8934 55.9207 65.2835 55.9207 65.6691 55.9207C65.6018 55.7945 65.5346 55.6682 65.4718 55.5465C65.2386 55.1047 64.5481 55.1092 64.3105 55.5465C64.1176 55.9027 63.9652 56.2814 63.8621 56.6781C64.3015 56.7367 64.7409 56.7998 65.1848 56.8584C65.1489 56.4797 65.1086 56.0965 65.0727 55.7178C65.0369 55.3527 64.7902 55.0416 64.4001 55.0416C64.0638 55.0416 63.6917 55.3527 63.7275 55.7178Z" fill="#727272"/>
<path d="M60.396 48.1574C60.5664 48.5902 60.7771 48.9509 61.073 49.3116C61.4138 49.7263 62.055 49.4558 62.1985 49.014C62.3016 48.6894 62.3465 48.3378 62.3151 47.9996C61.8981 48.1123 61.4811 48.2251 61.0596 48.3423C61.1896 48.5947 61.3735 48.8247 61.5932 49.005C61.8757 49.2349 62.2703 49.28 62.5438 49.005C62.7814 48.7661 62.8263 48.2792 62.5438 48.0492C62.4631 47.9861 62.3868 47.914 62.3241 47.8373C62.2568 47.7517 62.3644 47.905 62.3061 47.8103C62.2747 47.7607 62.2478 47.7111 62.2209 47.6615C62.0819 47.391 61.7367 47.2693 61.4587 47.3459C61.1941 47.4181 60.9385 47.7066 60.9654 47.9996C60.9923 48.2837 60.9834 48.3964 60.8982 48.6533C61.2748 48.5542 61.647 48.455 62.0236 48.3558C61.9653 48.2882 61.9071 48.2025 61.8398 48.0853C61.8084 48.0312 61.777 47.9726 61.7456 47.9185C61.7367 47.905 61.6649 47.7336 61.6873 47.8013C61.5528 47.4631 61.2389 47.2242 60.8578 47.3279C60.5439 47.4136 60.2614 47.8148 60.396 48.1574Z" fill="#727272"/>
<path d="M67.1891 47.6345C67.2429 47.9185 67.3506 48.1935 67.4985 48.446C67.651 48.703 67.9693 48.8382 68.2563 48.7571C68.5612 48.6714 68.7226 48.4054 68.7496 48.1034C68.7809 47.7878 68.8123 47.4677 68.8437 47.1521C68.5074 47.346 68.1711 47.5398 67.8303 47.7382C68.0366 47.8915 68.2429 48.0493 68.4491 48.2026C68.7406 48.419 69.2024 48.2521 69.3683 47.9591C69.5701 47.6165 69.4177 47.2513 69.1262 47.0349C68.9199 46.8816 68.7137 46.7238 68.5074 46.5705C68.3191 46.4308 68.0187 46.4578 67.8303 46.5705C67.6106 46.7013 67.521 46.9087 67.4985 47.1566C67.4671 47.4722 67.4358 47.7923 67.4044 48.1079C67.8214 47.9952 68.2384 47.8825 68.6599 47.7652C68.5523 47.5849 68.5254 47.4993 68.485 47.2783C68.4177 46.9177 67.9873 46.7148 67.6555 46.805C67.2878 46.9042 67.1264 47.2738 67.1891 47.6345Z" fill="#727272"/>
<path d="M70.1754 55.7494C70.2382 56.1236 70.3279 56.4843 70.449 56.8449C70.588 57.2732 71.0363 57.4536 71.4354 57.2507C71.682 57.1245 71.839 56.89 71.9017 56.624C71.9331 56.5023 71.9376 56.3716 71.9466 56.2408C71.9466 56.1958 71.9511 56.1507 71.9556 56.1056C71.9466 56.2949 71.821 56.4167 71.5744 56.4798C71.4623 56.4482 71.3502 56.4167 71.2336 56.3896C71.7627 56.6511 72.1753 56.8269 72.7806 56.6917C73.6236 56.5023 73.2693 55.1949 72.4219 55.3888C72.2111 55.4384 72.0901 55.3121 71.9107 55.222C71.5968 55.0687 71.2381 55.0912 70.9646 55.3076C70.7583 55.4699 70.6642 55.6953 70.6283 55.9523C70.6149 56.0515 70.6104 56.1462 70.6014 56.2453C70.5924 56.331 70.5969 56.3355 70.6059 56.2679C70.5611 56.4212 70.6104 56.3581 70.7583 56.0876C71.0857 56.2228 71.4175 56.3581 71.7448 56.4933C71.6282 56.1326 71.5385 55.772 71.4713 55.3978C71.4085 55.0371 70.9691 54.8342 70.6418 54.9244C70.2651 55.0191 70.1127 55.3888 70.1754 55.7494Z" fill="#727272"/>
<path d="M71.7403 65.5325C71.6955 65.8751 71.6462 66.2178 71.6013 66.5604C71.561 66.8625 71.6282 67.16 71.9107 67.3223C72.1439 67.4621 72.5474 67.4485 72.7268 67.2186C72.8254 67.0879 72.9241 66.9797 73.081 66.9256C72.7985 66.7092 72.5116 66.4928 72.2291 66.2719C72.238 66.5424 72.2425 66.8129 72.2515 67.0834C72.2649 67.5342 72.6685 67.8408 73.1034 67.7371C73.3187 67.6875 73.498 67.5793 73.6684 67.444L73.8343 67.3133C73.8209 67.2953 73.6056 67.3088 73.5563 67.2547C73.498 67.1555 73.4397 67.0563 73.3814 66.9571C73.3904 66.9797 73.3949 67.0022 73.4039 67.0248C73.6864 67.8408 74.9867 67.4891 74.6997 66.6641C74.5428 66.2178 74.1841 65.9653 73.7088 65.9788C73.516 65.9833 73.3142 66.0465 73.1483 66.1456C73.0138 66.2268 72.8882 66.3936 72.7358 66.4297C73.0182 66.6461 73.3052 66.8625 73.5877 67.0834C73.5787 66.8129 73.5743 66.5424 73.5653 66.2719C73.5563 65.8571 73.1393 65.4739 72.7133 65.6182C72.3412 65.7489 72.0094 65.9473 71.7672 66.2628C72.1439 66.4838 72.516 66.7002 72.8927 66.9211C72.9375 66.5784 72.9869 66.2358 73.0317 65.8932C73.081 65.5325 72.9465 65.1673 72.5609 65.0591C72.256 64.9735 71.7896 65.1673 71.7403 65.5325Z" fill="#727272"/>
<path d="M69.8078 76.7311C69.7136 77.1143 69.6194 77.4975 69.5297 77.8807C69.4446 78.2323 69.6374 78.6201 70.0006 78.7147C70.3234 78.8004 70.6328 78.7373 70.8973 78.5254C71.1081 78.3541 71.1843 78.0881 71.3771 77.9213C71.2785 77.9799 71.1798 78.0385 71.0812 78.0971C71.1126 78.0836 71.144 78.07 71.1798 78.0565C71.0588 78.0565 70.9422 78.0565 70.8211 78.0565C70.8525 78.061 70.8839 78.07 70.9198 78.0746C70.7852 77.9709 70.6507 77.8672 70.5162 77.7635C70.5072 77.7094 70.5117 77.7229 70.5252 77.8131C70.5566 77.8897 70.588 77.9664 70.6238 78.043C70.7135 78.1918 70.8525 78.2955 71.005 78.3631C71.1664 78.4352 71.3457 78.4442 71.5206 78.4082C71.5789 78.4037 71.6372 78.3856 71.691 78.3631C71.9556 78.2774 71.9017 78.2504 71.5296 78.2864C71.4489 78.2053 71.3682 78.1241 71.2874 78.043C71.2964 78.0565 71.3099 78.0746 71.3188 78.0881C71.2874 77.9754 71.2561 77.8627 71.2292 77.7454C71.2292 77.7635 71.2292 77.786 71.2247 77.8041C71.1843 78.6742 72.5295 78.6742 72.5698 77.8041C72.5878 77.4344 72.3367 77.1233 71.9914 77.0151C71.83 76.9655 71.6506 76.961 71.4847 77.0016C71.4264 77.0151 71.1978 77.0602 71.265 77.0692C71.3771 77.1008 71.4892 77.1323 71.6058 77.1594C71.5834 77.1458 71.5654 77.1278 71.543 77.1143C71.6237 77.1954 71.7045 77.2766 71.7852 77.3577C71.7538 77.2946 71.682 77.0557 71.5699 76.9385C71.3906 76.7581 71.0632 76.677 70.8211 76.7446C70.6238 76.7987 70.4534 76.9159 70.3189 77.0647C70.2472 77.1458 70.1844 77.236 70.1306 77.3307C70.1127 77.3622 70.0992 77.3938 70.0813 77.4208C69.9557 77.5922 70.0499 77.5877 70.3638 77.4028C70.5207 77.6823 70.6776 77.9573 70.8346 78.2369C70.9287 77.8536 71.0229 77.4704 71.1126 77.0872C71.3099 76.2442 70.014 75.8835 69.8078 76.7311Z" fill="#727272"/>
<path d="M68.3819 84.8641C68.4805 84.9407 68.5791 85.0174 68.6778 85.094C68.9648 85.3194 69.4311 85.1391 69.597 84.8506C69.7988 84.5034 69.6463 84.1473 69.3549 83.9264C69.2562 83.8497 69.1576 83.7731 69.0589 83.6964C68.772 83.471 68.3056 83.6514 68.1397 83.9399C67.9379 84.287 68.0949 84.6387 68.3819 84.8641Z" fill="#727272"/>
</g>
<g clip-path="url(#clip1_101_253)">
<path d="M51.2487 45.5967C53.6118 52.3817 53.8987 59.5409 54.1364 66.6595C54.3965 74.3913 54.0108 82.0013 52.576 89.6113C52.4146 90.4634 53.7104 90.8286 53.8718 89.972C55.3291 82.2447 55.7461 74.5085 55.4816 66.6595C55.2394 59.4237 54.9435 52.1292 52.5446 45.236C52.2621 44.4245 50.9618 44.7762 51.2487 45.5967Z" fill="#727272"/>
<path d="M38.2992 44.7375C38.8584 40.1055 35.6253 36.647 32.1803 33.9798C30.1737 32.424 28.2122 31.126 26.9046 28.8989C26.2372 27.7564 25.5969 26.4673 25.2226 25.2004C24.4922 22.7332 25.7547 18.8569 28.8796 21.7019C30.6787 23.3422 31.0936 25.4582 32.4689 27.2808C33.2444 28.3121 34.4349 28.8633 35.6749 28.2054C39.404 26.2317 36.5181 19.3859 35.6839 16.6654C34.6739 13.3714 34.1418 10.2019 35.8417 7.03241C36.4009 5.99221 37.0276 4.92089 37.7446 3.98293C38.209 3.37837 38.7997 2.72491 39.4626 2.30706C40.8334 1.43578 41.6586 1.43578 43.1736 1.89809C44.7879 2.39152 44.8014 2.47598 45.1306 4.00516C45.2839 4.71196 45.3471 5.48989 45.3831 6.21892C45.4598 7.76144 45.3335 9.3173 45.0134 10.8331C44.4137 13.7093 42.6866 16.252 42.3079 19.1725C42.0283 21.3196 42.2222 28.1432 45.8115 27.503C50.0185 26.7518 49.7164 20.0927 53.91 19.2037C57.4001 18.4613 59.1045 22.2442 57.6255 24.8403C56.8229 26.2539 55.4882 27.3474 54.2031 28.3121C51.9124 30.0324 49.1122 30.9304 46.8621 32.6685C42.7904 35.8246 44.1431 40.7856 45.816 44.8531C46.1407 45.6399 47.4483 45.2931 47.1192 44.4974C45.9919 41.7547 44.576 38.3985 46.1001 35.5179C47.5114 32.8507 51.236 31.9172 53.6394 30.3436C56.886 28.2187 61.544 24.218 58.7934 20.0083C56.4937 16.4831 52.0387 17.6611 49.9374 20.6128C49.3016 21.5063 48.8101 22.4887 48.2464 23.4267C47.9894 23.8534 47.7324 24.2846 47.4303 24.6847C47.2138 24.9425 46.9974 25.1959 46.781 25.4537C45.072 25.8272 44.1882 25.3782 44.1296 24.0979C42.4161 20.5061 44.4903 16.8254 45.6537 13.5137C46.5194 11.051 46.8892 8.42824 46.7043 5.82774C46.5781 4.02739 46.3887 1.59136 44.6707 0.515598C43.1601 -0.431251 40.8379 0.111076 39.3544 0.848996C37.1449 1.95143 35.7921 4.28966 34.6739 6.37006C31.8015 11.7133 34.7009 16.4209 35.7696 21.8042C35.9094 22.5198 36.2656 24.089 36.0266 24.8848C35.2961 25.5427 34.5656 26.1961 33.8306 26.854C33.4113 26.325 33.0956 25.7471 32.8747 25.1115C32.4508 24.1824 32.0044 23.3156 31.3867 22.4887C30.4127 21.1818 28.573 19.0347 26.6926 19.1414C24.8664 19.2481 23.7932 21.1507 23.5993 22.7377C23.3108 25.0848 24.5869 27.5875 25.7412 29.579C28.9427 35.0956 37.8663 37.1271 36.9465 44.7464C36.8473 45.5865 38.2 45.5821 38.2992 44.7375Z" fill="#46A358"/>
<path d="M49.987 22.5732C50.961 17.7056 49.1212 13.2558 48.7379 8.45044C48.508 5.57878 49.748 0.98678 53.689 2.2937C56.6245 3.26722 57.7382 6.71678 57.5398 9.47731C57.3955 11.4955 56.4125 17.4166 60.3535 16.8654C63.7354 16.3942 65.4805 10.8376 67.1218 8.48156C68.5287 6.46339 71.6355 3.51616 74.368 4.33854C78.6968 5.64101 75.9237 10.762 73.9306 12.7757C70.5713 16.1675 66.991 19.1681 64.0285 22.9466C62.3105 25.1381 60.8225 28.7388 64.6327 29.7212C66.0982 30.0991 67.5096 29.5967 68.8308 29.0011C69.8949 28.521 70.9095 27.9475 72.0413 27.6319C74.1065 27.054 76.5009 27.5075 75.1346 30.0368C71.9376 35.9624 64.6192 31.5927 59.8981 34.0776C55.894 36.1891 54.9606 40.8567 55.3394 44.9508C55.416 45.7999 56.7733 45.8088 56.6921 44.9508C56.4261 42.0969 56.656 39.0119 58.6581 36.7492C61.2464 33.8242 64.7004 34.8911 68.1273 34.8244C71.6265 34.7577 76.1311 33.0863 76.8571 29.2322C77.6507 25.0092 72.7718 25.8271 70.2692 26.8451C69.1645 27.2941 68.1319 27.992 66.9775 28.3209C66.0622 28.5832 64.6147 28.7255 63.8932 27.8764C63.1943 27.0496 63.758 25.6582 64.1908 24.9559C65.7736 22.3776 68.1995 20.026 70.3549 17.9056C73.3264 14.9806 78.3947 11.8778 77.9573 7.10796C77.6237 3.45837 74.2057 2.12033 71.0538 3.48949C69.1599 4.31187 67.5953 5.61879 66.3598 7.25021C64.7455 9.37951 63.8842 12.3045 61.9588 14.1804C61.2644 14.8561 60.5835 16.292 59.0324 14.8828C58.3425 14.256 58.5499 12.5846 58.622 11.7266C58.7167 10.602 58.9602 9.50398 58.9241 8.37043C58.8655 6.4545 58.2207 4.51191 56.9627 3.02717C54.3022 -0.102319 49.7345 0.0354854 47.9669 3.96069C46.9117 6.30781 47.3762 8.99277 47.8181 11.4288C48.4674 15.025 49.4188 18.5546 48.6838 22.2175C48.517 23.0577 49.8201 23.4178 49.987 22.5732Z" fill="#46A358"/>
<path d="M49.6849 31.0059C49.0491 35.589 48.0075 40.0788 46.5555 44.4796C46.285 45.2976 47.5926 45.6487 47.8587 44.8352C49.3106 40.4344 50.3522 35.9446 50.988 31.3615C51.1053 30.5169 49.8021 30.1568 49.6849 31.0059Z" fill="#46A358"/>
<path d="M33.506 43.9729C33.3301 40.4433 30.8456 38.0607 27.9868 36.247C26.1335 35.069 24.1044 34.0866 22.5126 32.5529C21.8272 31.895 20.5511 30.6192 20.4835 29.5968C20.2535 26.1873 24.4786 28.8411 25.4165 29.6279C26.0749 30.1836 27.0353 29.2412 26.3725 28.6855C24.898 27.4453 22.2511 25.8316 20.2265 26.7651C18.5942 27.5164 18.8647 29.379 19.4915 30.7215C22.1294 36.4248 31.806 37.0782 32.1532 43.9729C32.1938 44.8264 33.5511 44.8309 33.506 43.9729Z" fill="#46A358"/>
<path d="M63.8391 45.2931C65.5256 42.786 67.7486 40.7367 70.4721 39.3587C72.9522 38.1051 76.0274 37.8873 78.2234 36.1136C80.744 34.0776 80.8748 29.0856 76.7038 29.2145C75.8335 29.2411 75.8335 30.5747 76.7038 30.5481C78.3496 30.7703 79.017 31.6683 78.7149 33.2375C78.3767 34.1399 77.804 34.8511 76.9969 35.3668C76.0094 36.0558 74.8099 36.3714 73.6736 36.727C72.2262 37.1805 70.8148 37.6561 69.4756 38.3674C66.6889 39.8521 64.4118 42.0303 62.6668 44.6219C62.1843 45.3376 63.3567 46.0044 63.8391 45.2931Z" fill="#46A358"/>
<path d="M67.5141 33.5619C61.783 34.6288 59.6682 40.2521 58.3109 45.1731C58.0809 46.0043 59.3886 46.3555 59.614 45.5287C60.8496 41.0523 62.6307 35.8246 67.8748 34.8511C68.7271 34.6866 68.3663 33.4019 67.5141 33.5619Z" fill="#46A358"/>
<path d="M37.2937 13.2647C36.6218 10.602 37.4605 7.68587 39.6339 5.89886C40.0713 5.52101 40.5673 5.23207 41.1129 5.03203C42.6145 5.34764 43.3134 6.13891 43.2097 7.40582C43.2368 8.14374 43.0925 8.87277 42.9166 9.58402C42.5604 11.0199 41.9336 12.3846 41.4692 13.7893C40.2742 17.4078 38.5562 23.3245 41.7848 26.405C42.0959 26.7029 42.5784 26.2317 42.2628 25.9338C39.431 23.2355 40.883 18.0479 41.8524 14.8161C42.6912 12.0156 44.9683 8.29488 43.4307 5.35209C42.2312 3.05831 39.4806 4.9209 38.3128 6.26338C36.5857 8.25043 36.0041 10.9221 36.6399 13.4425C36.7481 13.8604 37.3974 13.6826 37.2937 13.2647Z" fill="#46A358"/>
<path d="M51.5877 24.0623C51.9755 23.2133 52.7601 22.013 53.8108 21.8708C55.4115 21.653 56.2367 23.6356 55.38 24.9469C54.5728 26.1827 53.0352 27.0451 51.7095 27.5741C49.5045 28.4498 48.0255 29.659 46.4247 31.3882C46.1316 31.7038 46.6096 32.1794 46.9027 31.8594C47.8722 30.8058 48.8642 29.7123 50.1268 28.9833C51.1323 28.4009 52.3002 28.1742 53.3102 27.6052C54.5412 26.9073 56.5343 25.4004 56.6786 23.8801C56.7958 22.6532 55.4837 21.2307 54.2572 21.1551C52.7782 21.0617 51.5427 22.5554 51.0061 23.7289C50.8257 24.1112 51.4119 24.4535 51.5877 24.0623Z" fill="#46A358"/>
<path d="M26.3003 24.8359C26.4491 23.6668 26.8955 23.2356 27.635 23.5512C27.8966 23.5557 28.113 23.649 28.2934 23.8313C28.6496 24.0624 28.8841 24.4047 29.096 24.7648C29.4748 25.4094 29.6506 26.1606 29.9302 26.8452C30.2864 27.7254 30.7554 28.4411 31.5625 28.9656C31.9278 29.2057 32.266 28.6278 31.9052 28.3877C29.9212 27.0897 30.4758 23.7201 27.9958 22.9022C26.5077 22.4132 25.0107 23.6846 25.7186 25.1693C25.9035 25.5605 26.4852 25.2227 26.3003 24.8359Z" fill="#46A358"/>
<path d="M50.5326 7.58367C50.1809 5.6633 52.2326 4.13412 53.8017 5.53439C54.6675 6.30787 55.0012 7.73037 55.0057 8.84169C55.0147 10.3487 54.3158 11.6956 54.6134 13.207C54.6946 13.6293 55.3484 13.4515 55.2672 13.0292C54.893 11.131 55.9661 9.3129 55.4837 7.34363C55.1951 6.16562 54.6089 4.85426 53.3734 4.40973C51.1458 3.61402 49.509 5.73887 49.8788 7.75704C49.9599 8.17934 50.6093 8.00153 50.5326 7.58367Z" fill="#46A358"/>
<path d="M50.1944 11.98C51.2946 14.2604 51.8357 16.2608 51.7546 18.7902C51.741 19.2214 52.4174 19.2169 52.4309 18.7902C52.5166 16.1319 51.9304 14.0293 50.7806 11.6466C50.5912 11.2598 50.0095 11.5977 50.1944 11.98Z" fill="#46A358"/>
<path d="M67.7351 10.073C68.3889 8.60163 69.6244 7.67256 71.0538 6.97465C71.4641 6.76127 71.888 6.58791 72.3299 6.4501C74.2373 7.09023 74.7198 7.97484 73.7773 9.11284C73.3264 9.81075 72.6726 10.4375 72.109 11.051C69.9626 13.3848 67.6449 15.5452 65.1964 17.5634C64.8627 17.839 65.3407 18.3102 65.6744 18.0346C67.8884 16.212 69.9942 14.2738 71.9602 12.1934C73.1416 10.9443 75.4097 9.09061 74.9137 7.1169C73.9262 3.20503 67.9786 7.86815 67.1489 9.73963C66.9775 10.1264 67.5637 10.4642 67.7351 10.073Z" fill="#46A358"/>
<path d="M63.9158 19.986C61.7559 21.5507 60.4437 23.8312 60.1957 26.4583C60.1551 26.8851 60.8315 26.8806 60.8721 26.4583C61.0976 24.0845 62.306 21.973 64.2585 20.5594C64.6057 20.3105 64.2675 19.7281 63.9158 19.986Z" fill="#46A358"/>
<path d="M68.195 31.1082C68.6369 30.8459 69.0788 30.5703 69.5432 30.3436C69.895 30.1525 70.2647 30.0058 70.6525 29.9035C71.3785 29.6057 71.622 30.1613 71.3785 31.5705C70.9005 32.4996 68.3122 32.5351 67.5096 32.4862C65.503 32.3707 63.6137 31.8283 61.6342 32.4284C61.2193 32.5529 61.3952 33.1975 61.8145 33.073C64.1909 32.3484 66.5041 33.402 68.9029 33.1397C70.2061 32.993 72.0503 32.4018 72.6997 31.1571C73.0604 30.4636 72.9747 29.5479 72.1856 29.17C70.8915 28.5521 68.8714 29.9213 67.8523 30.5303C67.4825 30.757 67.8207 31.3349 68.195 31.1082Z" fill="#46A358"/>
<path d="M58.1395 33.5886C54.6224 36.4025 53.3418 40.67 52.9856 44.973C52.9495 45.3998 53.6259 45.3998 53.6619 44.973C54.0046 40.8345 55.2356 36.7626 58.6175 34.0598C58.9557 33.7887 58.4732 33.3219 58.1395 33.5886Z" fill="#46A358"/>
<path d="M43.0023 34.7222C41.9562 36.5092 41.9877 38.4563 42.2177 40.4566C42.4116 42.137 42.6325 43.7862 43.8094 45.0931C44.098 45.4132 44.576 44.942 44.2874 44.6219C43.133 43.3416 42.9888 41.5635 42.8354 39.9277C42.6731 38.2251 42.6957 36.5759 43.5885 35.0556C43.8049 34.6866 43.2232 34.3532 43.0023 34.7222Z" fill="#46A358"/>
<path d="M24.3434 30.3303C22.3864 30.357 23.162 32.3885 24.2081 33.1175C25.5157 34.0288 27.0038 34.6378 28.3926 35.4068C30.0294 36.3137 30.6878 37.8428 31.9458 39.1186C32.2479 39.4254 32.7259 38.9542 32.4238 38.6474C31.1747 37.3805 30.5705 35.8647 28.9607 34.9578C28.1491 34.5 27.2969 34.1132 26.4807 33.6732C26.0568 33.4464 25.633 33.2197 25.2272 32.9663C25.0648 32.8686 24.898 32.7663 24.7357 32.6685C23.9285 32.3662 23.8023 31.8106 24.3479 31.0015C24.7762 30.9926 24.7762 30.3258 24.3434 30.3303Z" fill="#46A358"/>
<path d="M75.2383 33.402C75.2609 34.2911 74.846 34.7756 73.9848 34.8601C73.5699 35.0245 73.1596 35.1846 72.7448 35.349C72.127 35.5935 71.5047 35.838 70.887 36.0825C69.444 36.6515 67.9966 37.225 66.5537 37.794C66.1523 37.9495 66.3282 38.5986 66.734 38.4385C68.3844 37.7851 70.0347 37.1361 71.6851 36.4826C72.9071 35.9981 74.4673 35.6513 75.554 34.8956C76.4964 34.2377 76.5234 32.873 75.2338 32.7352C74.8054 32.6863 74.81 33.3576 75.2383 33.402Z" fill="#46A358"/>
<path d="M65.0025 38.7185C63.1898 40.4077 61.7604 42.3903 60.7504 44.6396C60.5745 45.0264 61.1562 45.3687 61.3366 44.9775C62.3241 42.7815 63.7084 40.8433 65.485 39.1941C65.7961 38.8963 65.3181 38.4251 65.0025 38.7185Z" fill="#46A358"/>
<path d="M33.5511 41.6346C34.0696 42.3903 34.4033 43.2038 34.5611 44.1018C34.6333 44.5241 35.2871 44.3463 35.215 43.924C35.0481 42.9771 34.6829 42.0925 34.1373 41.2968C33.8938 40.9456 33.3076 41.279 33.5511 41.6346Z" fill="#46A358"/>
</g>
<defs>
<clipPath id="clip0_101_253">
<rect width="55" height="48" fill="white" transform="translate(22 43)"/>
</clipPath>
<clipPath id="clip1_101_253">
<rect width="61" height="46" fill="white" transform="translate(19)"/>
</clipPath>
</defs>
</svg>
