<svg width="82" height="93" viewBox="0 0 82 93" fill="none" xmlns="http://www.w3.org/2000/svg">
<g clip-path="url(#clip0_101_251)">
<path d="M21.2488 41.7766C38.0215 40.0238 54.9382 42.7144 71.6698 40.29C72.4514 40.1753 72.1182 38.9918 71.3407 39.1064C54.7284 41.5104 37.9063 38.8075 21.2488 40.548C20.4672 40.6299 20.4589 41.8585 21.2488 41.7766Z" fill="#727272"/>
<path d="M21.0843 40.5726C19.4469 41.0804 19.6526 43.21 20.5206 44.3403C21.9441 46.1913 25.1407 46.2323 27.2264 46.0357C28.0122 45.962 28.0163 44.7334 27.2264 44.8071C25.8771 44.9341 24.4783 44.9218 23.1659 44.5368C22.483 44.3362 21.7631 44.0536 21.3722 43.4147C21.1707 43.083 20.7839 41.9527 21.4134 41.7602C22.1704 41.5227 21.8454 40.3351 21.0843 40.5726Z" fill="#727272"/>
<path d="M68.7818 40.6749C69.6498 40.6217 70.4891 40.4742 71.353 40.3596C72.723 40.1753 73.4265 40.5439 73.6651 41.9772C73.8625 43.1689 73.1097 43.517 72.0483 43.8528C71.5464 44.0126 71.0198 44.1108 70.5014 44.2132C69.115 44.4835 67.7245 44.6187 66.3134 44.6678C65.5235 44.6965 65.5194 45.9251 66.3134 45.8964C68.7201 45.8104 75.4793 45.7203 75.216 41.9322C75.1502 40.9861 74.2328 39.6798 73.373 39.2538C72.0894 38.615 70.09 39.3644 68.7776 39.4463C67.9919 39.4955 67.9878 40.7241 68.7818 40.6749Z" fill="#727272"/>
<path d="M23.0549 45.7735C22.8862 48.374 19.9241 49.8442 18.3526 51.6298C17.1184 53.0344 16.1475 54.6521 15.444 56.3762C13.9301 60.0701 13.6421 64.2105 14.4114 68.1051C15.9953 76.095 22.0593 82.6883 29.6331 85.5182C30.3778 85.7967 30.6986 84.609 29.9622 84.3347C22.0963 81.3942 15.9829 74.0268 15.3 65.5783C14.975 61.5649 15.8266 57.3877 18.077 54.0091C19.9447 51.2079 24.0546 49.4142 24.2891 45.7735C24.3384 44.9872 23.1042 44.9872 23.0549 45.7735Z" fill="#727272"/>
<path d="M69.8226 45.2494C69.8226 48.4805 72.1799 50.5077 74.5784 52.3137C76.6395 53.8617 78.2357 55.3688 79.2519 57.7973C80.1364 59.9064 80.6259 62.1833 80.737 64.4644C81.1402 72.8556 76.2445 80.6449 68.7201 84.3101C68.0084 84.6582 68.6296 85.7189 69.3413 85.3708C76.3309 81.9676 81.2595 75.0507 81.9177 67.3024C82.251 63.3833 81.568 59.0668 79.5686 55.6309C77.3677 51.8428 71.0568 50.1064 71.0527 45.2494C71.0568 44.459 69.8226 44.459 69.8226 45.2494Z" fill="#727272"/>
<path d="M29.267 84.6172C28.4688 86.3823 29.9005 87.9057 31.6777 87.9876C33.6072 88.0818 35.6436 87.6354 37.5772 87.5535C39.8193 87.4553 42.0614 87.4512 44.3036 87.4839C52.6714 87.6109 61.0351 88.2456 69.3659 87.1153C69.6498 87.0785 69.7938 86.7672 69.8185 86.5215C69.8843 85.8335 69.8267 85.3257 69.6251 84.6787C69.3906 83.9251 68.2017 84.2486 68.4362 85.0063C68.646 85.5018 68.6953 86.0096 68.5843 86.5215C68.7365 86.325 68.8846 86.1284 69.0368 85.9277C62.5408 86.8082 55.9873 86.5871 49.4543 86.3823C46.2865 86.284 43.1146 86.1939 39.9468 86.2471C38.4987 86.2717 37.0506 86.3291 35.6025 86.4273C34.8126 86.4806 34.0268 86.5543 33.2411 86.6321C32.661 86.6894 29.4439 87.185 30.3284 85.2274C30.6534 84.5189 29.592 83.8965 29.267 84.6172Z" fill="#727272"/>
<path d="M21.0802 52.2236C16.0529 58.3788 15.662 66.9707 20.1751 73.5232C20.3972 73.8467 20.9321 73.5396 20.7099 73.2119C16.3614 66.9011 16.6617 58.6041 21.5204 52.6536C21.7631 52.3547 21.3311 51.9165 21.0802 52.2236Z" fill="#727272"/>
<path d="M21.4134 75.8042C21.8165 76.3857 22.2773 76.9222 22.7916 77.4095C23.0795 77.6798 23.5156 77.2498 23.2276 76.9754C22.7504 76.525 22.3226 76.0335 21.9441 75.497C21.7219 75.1735 21.1871 75.4766 21.4134 75.8042Z" fill="#727272"/>
<path d="M24.865 79.3385C25.2641 79.3385 25.2641 78.7242 24.865 78.7242C24.466 78.7242 24.466 79.3385 24.865 79.3385Z" fill="#727272"/>
<path d="M68.6296 45.2822C68.3128 46.4616 68.0413 47.6492 68.5062 48.8287C68.9381 49.9221 69.8144 50.9091 70.559 51.8141C72.3445 53.9764 75.9977 56.1592 76.1705 59.1734C76.1911 59.5665 76.8082 59.5706 76.7876 59.1734C76.6601 56.9169 74.9898 55.4712 73.4512 54.0051C72.4597 53.0591 71.5258 52.0558 70.6701 50.9828C70.0941 50.2579 69.4441 49.4921 69.1109 48.6198C68.7036 47.5591 68.9381 46.5149 69.222 45.4501C69.3248 45.0651 68.7283 44.9013 68.6296 45.2822Z" fill="#727272"/>
<path d="M76.4379 60.5986C76.5243 61.3849 76.6107 62.1711 76.6971 62.9574C76.7382 63.3465 77.3594 63.3506 77.3141 62.9574C77.2278 62.1711 77.1414 61.3849 77.055 60.5986C77.0138 60.2095 76.3967 60.2054 76.4379 60.5986Z" fill="#727272"/>
<path d="M76.4955 64.575C76.5408 64.8044 76.5037 65.0214 76.4173 65.2344C76.3556 65.39 76.4873 65.5702 76.6313 65.6111C76.8082 65.6603 76.948 65.5497 77.0097 65.3982C77.1373 65.0788 77.1537 64.747 77.0879 64.4112C77.018 64.0263 76.4214 64.1901 76.4955 64.575Z" fill="#727272"/>
<path d="M49.7423 60.0824C51.2151 57.2976 53.9879 55.4752 57.2091 55.6349C61.0434 55.8233 65.0751 59.1446 62.3886 63.0679C60.813 65.3653 57.9826 66.8519 55.8968 68.662C53.5806 70.6728 51.4619 72.8884 49.5078 75.2554C49.0059 75.8615 49.8739 76.7338 50.3799 76.1236C53.3585 72.5157 56.7278 69.4647 60.4304 66.6144C62.9029 64.706 65.6387 61.8106 64.1371 58.4566C62.8947 55.68 59.4636 54.3163 56.5715 54.3982C53.1651 54.4965 50.2442 56.495 48.6726 59.4599C48.3065 60.1602 49.372 60.7827 49.7423 60.0824Z" fill="#727272"/>
<path d="M49.4502 59.1283C46.8131 56.1756 43.5219 53.1328 39.2516 53.354C36.0838 53.5178 33.3563 55.9094 32.8996 59.0587C32.336 62.8959 35.2158 66.2623 38.0215 68.486C41.469 71.2175 46.6691 72.1636 49.2486 75.8657C49.697 76.5127 50.7666 75.8985 50.3141 75.2473C48.7055 72.9376 46.3647 71.7499 43.8798 70.5541C40.7203 69.0348 37.606 67.155 35.5737 64.2228C33.3069 60.9589 33.6813 55.9667 38.075 54.7709C42.3741 53.6038 45.9944 57.1093 48.5739 59.9965C49.1046 60.5903 49.9768 59.718 49.4502 59.1283Z" fill="#727272"/>
</g>
<g clip-path="url(#clip1_101_251)">
<path d="M46.4719 12.629C45.283 14.782 43.4689 16.507 41.1405 17.4C40.2313 17.7507 39.0342 17.7303 39.1535 16.4866C39.2276 15.7118 40.0668 15.039 40.6756 14.676C41.7123 14.0562 43.041 13.8523 44.1559 13.3711C44.8799 13.0571 44.2546 12.001 43.5347 12.315C41.5436 13.1754 39.3633 13.3793 38.232 15.4671C37.6273 16.5844 37.4298 18.1381 38.7915 18.7742C40.2683 19.4634 42.3005 18.3501 43.5264 17.5672C45.2296 16.4825 46.5665 15.0022 47.5333 13.2447C47.92 12.5556 46.8545 11.9357 46.4719 12.629Z" fill="#46A358"/>
<path d="M43.8967 12.1191C42.3993 12.2822 40.9142 12.2904 39.4291 12.0131C38.8861 11.9111 38.3472 11.7725 37.8206 11.6053C37.3763 11.4748 36.9485 11.3158 36.5248 11.1241C35.8954 10.333 35.9571 9.89262 36.7181 9.79476C38.9478 8.09024 42.4322 9.88039 44.6207 10.7082C45.3653 10.9895 45.6862 9.80699 44.9498 9.5297C43.0451 8.80793 40.9553 7.72324 38.8614 7.95567C37.6602 8.08616 34.8916 8.60404 34.5707 10.1006C33.8303 13.5667 42.1072 13.5422 43.8967 13.3465C44.6783 13.2568 44.6865 12.0335 43.8967 12.1191Z" fill="#46A358"/>
<path d="M45.353 9.55003C43.4812 8.07795 41.8192 5.78623 41.9097 3.30286C41.9509 2.19777 42.6584 1.72883 43.6828 2.22632C44.2464 2.49953 44.6372 3.19683 44.9457 3.72287C45.6615 4.95436 45.9618 6.3612 46.2251 7.74357C46.3732 8.51427 47.5621 8.18805 47.414 7.41735C47.019 5.35399 46.4555 3.20499 44.9169 1.66358C44.0078 0.754236 42.4939 -0.289679 41.4243 0.933659C38.9231 3.79219 42.1977 8.61622 44.4808 10.4145C45.0979 10.8998 45.9783 10.0394 45.353 9.55003Z" fill="#46A358"/>
<path d="M47.3852 7.75594C47.6567 5.79045 48.5206 2.05111 50.7996 1.41498C52.9182 0.827776 52.7084 4.20419 52.116 5.3215C51.5195 6.44697 50.3471 7.50312 49.4955 8.44509C48.969 9.02821 49.837 9.89678 50.3677 9.30958C51.5894 7.95576 53.416 6.40212 53.6792 4.49779C53.8849 3.02163 53.7739 0.791076 52.1325 0.138629C50.635 -0.456729 49.1541 0.897098 48.3025 1.9614C47.0478 3.52727 46.4637 5.4683 46.1922 7.42157C46.0852 8.20042 47.2741 8.5348 47.3852 7.75594Z" fill="#46A358"/>
<path d="M50.454 9.46468C51.8897 8.27396 54.5555 7.44617 56.3079 8.51863C58.5787 9.91324 55.3618 10.7492 54.3004 10.8185C53.165 10.896 52.0296 10.8267 50.9024 10.6962C50.1167 10.6065 50.1208 11.8298 50.9024 11.9195C52.7454 12.1316 55.2342 12.4048 56.9497 11.4995C58.0152 10.9368 58.7803 9.57478 58.1262 8.42892C57.394 7.14442 55.333 6.8345 53.996 6.87121C52.3381 6.92014 50.8448 7.55627 49.586 8.60019C48.9731 9.10583 49.8493 9.97033 50.454 9.46468Z" fill="#46A358"/>
<path d="M50.5857 11.8786C51.8568 12.3434 53.1198 13.0448 53.8438 14.2274C54.7488 15.7117 54.7694 18.4438 52.1366 17.9341C49.8205 17.4855 48.1462 15.047 47.6731 12.9306C47.5003 12.164 46.3115 12.4862 46.4842 13.2569C46.9039 15.1408 47.9529 16.8045 49.5243 17.9586C50.7585 18.8679 52.9264 19.9526 54.3786 18.9209C55.8719 17.8607 55.8719 15.6668 55.1972 14.1581C54.3992 12.3801 52.7002 11.3485 50.923 10.696C50.1661 10.4269 49.8452 11.6094 50.5857 11.8786Z" fill="#46A358"/>
<path d="M38.1045 15.2469C34.5008 17.4 31.8433 19.7977 31.2139 24.112C30.5269 28.7974 31.6253 33.6948 32.6291 38.2579C32.7977 39.0286 33.9866 38.7024 33.8179 37.9317C32.9294 33.8947 32.0202 29.7108 32.2958 25.5556C32.5961 21.0251 34.9657 18.5499 38.7216 16.3071C39.4044 15.8994 38.7874 14.8391 38.1045 15.2469Z" fill="#46A358"/>
<path d="M54.0083 13.8644C59.0477 14.2559 62.6144 18.2685 63.9678 22.8641C65.4405 27.8676 64.6178 33.1361 63.8156 38.1762C63.6922 38.9469 64.881 39.2772 65.0045 38.5025C65.9424 32.5897 66.8845 26.3099 64.4614 20.6091C62.6267 16.2907 58.8173 13.0163 54.0083 12.6411C53.2144 12.5799 53.2185 13.8033 54.0083 13.8644Z" fill="#46A358"/>
<path d="M39.3263 17.7833C33.2996 22.1302 35.2536 31.9577 36.4713 38.0662C36.6235 38.8369 37.8165 38.5107 37.6602 37.74C37.0226 34.543 36.4302 31.3093 36.4919 28.0389C36.5536 24.8582 37.1583 20.8498 39.9475 18.8394C40.5851 18.3786 39.9721 17.3184 39.3263 17.7833Z" fill="#46A358"/>
<path d="M46.0934 13.8278C43.8514 17.249 42.4034 21.074 41.8768 25.1273C41.6012 27.2519 41.5806 29.4049 41.8357 31.5335C42.1113 33.8579 42.8641 36.0925 43.1439 38.4168C43.2344 39.1876 44.4726 39.1998 44.378 38.4168C43.8926 34.3594 42.642 30.6242 42.9711 26.473C43.3125 22.1628 44.7935 18.0605 47.163 14.4435C47.5908 13.7829 46.5254 13.1712 46.0934 13.8278Z" fill="#46A358"/>
<path d="M49.1088 17.6079C50.9477 20.6173 51.3344 24.0223 51.6553 27.4598C51.9885 31.0361 52.26 34.6164 52.4904 38.2007C52.5397 38.9837 53.7739 38.9878 53.7245 38.2007C53.4653 34.1433 53.1732 30.0859 52.7536 26.0408C52.4245 22.8642 51.8692 19.7528 50.1743 16.9881C49.7629 16.3193 48.6933 16.931 49.1088 17.6079Z" fill="#46A358"/>
<path d="M54.7241 18.1789C59.3192 23.9082 59.4714 31.2237 59.3069 38.2049C59.2904 38.9919 60.5246 38.9919 60.541 38.2049C60.7138 30.8404 60.4176 23.3291 55.5963 17.3144C55.1026 16.6986 54.2346 17.5713 54.7241 18.1789Z" fill="#46A358"/>
<path d="M46.9532 19.6713C46.8833 19.9445 46.8175 20.2136 46.7475 20.4868C46.6529 20.8702 47.2453 21.0333 47.344 20.6499C47.414 20.3767 47.4798 20.1076 47.5497 19.8344C47.6443 19.4552 47.0519 19.292 46.9532 19.6713Z" fill="#46A358"/>
<path d="M48.2861 21.7957C48.2861 22.1015 48.2861 22.4074 48.2861 22.7132C48.2861 23.1088 48.9031 23.1088 48.9031 22.7132C48.9031 22.4074 48.9031 22.1015 48.9031 21.7957C48.9031 21.4002 48.2861 21.4002 48.2861 21.7957Z" fill="#46A358"/>
<path d="M45.3077 23.7328C45.2748 24.1732 45.2378 24.6177 45.2049 25.0581C45.1761 25.4495 45.7931 25.4495 45.8219 25.0581C45.8548 24.6177 45.8919 24.1732 45.9248 23.7328C45.9536 23.3413 45.3365 23.3413 45.3077 23.7328Z" fill="#46A358"/>
<path d="M49.3145 25.8735C49.3145 26.2813 49.3145 26.6891 49.3145 27.0968C49.3145 27.4924 49.9316 27.4924 49.9316 27.0968C49.9316 26.6891 49.9316 26.2813 49.9316 25.8735C49.9316 25.478 49.3145 25.478 49.3145 25.8735Z" fill="#46A358"/>
<path d="M46.9491 28.1163C46.9491 28.5567 46.9491 29.0012 46.9491 29.4416C46.9491 29.8371 47.5662 29.8371 47.5662 29.4416C47.5662 29.0012 47.5662 28.5567 47.5662 28.1163C47.5662 27.7207 46.9491 27.7207 46.9491 28.1163Z" fill="#46A358"/>
<path d="M45.6121 32.6019C45.6121 33.2135 45.6121 33.8252 45.6121 34.4369C45.6121 34.8324 46.2292 34.8324 46.2292 34.4369C46.2292 33.8252 46.2292 33.2135 46.2292 32.6019C46.2292 32.2063 45.6121 32.2063 45.6121 32.6019Z" fill="#46A358"/>
<path d="M43.7815 28.6016C43.8514 29.0094 43.9255 29.4171 43.9954 29.8249C44.0612 30.2123 44.6577 30.0492 44.5919 29.6618C44.522 29.254 44.4479 28.8462 44.378 28.4385C44.3081 28.0552 43.7116 28.2183 43.7815 28.6016Z" fill="#46A358"/>
<path d="M48.5 34.6409C48.5329 35.0486 48.5699 35.4564 48.6028 35.8642C48.6358 36.2557 49.2528 36.2557 49.2199 35.8642C49.187 35.4564 49.15 35.0486 49.1171 34.6409C49.0842 34.2494 48.463 34.2453 48.5 34.6409Z" fill="#46A358"/>
<path d="M50.3471 30.0533C50.38 30.4611 50.417 30.8689 50.4499 31.2766C50.4828 31.664 51.0999 31.6681 51.067 31.2766C51.0341 30.8689 50.9971 30.4611 50.9641 30.0533C50.9312 29.6618 50.3142 29.6577 50.3471 30.0533Z" fill="#46A358"/>
<path d="M57.431 16.401C57.9082 16.8128 58.3854 17.2247 58.8626 17.6325C59.1629 17.8894 59.599 17.4571 59.2987 17.2002C58.8215 16.7884 58.3443 16.3765 57.8671 15.9687C57.5709 15.7118 57.1307 16.14 57.431 16.401Z" fill="#46A358"/>
<path d="M57.6902 19.8058C57.9576 20.2829 58.2291 20.7641 58.4965 21.2412C58.6898 21.5837 59.2246 21.2779 59.0313 20.9313C58.7639 20.4542 58.4924 19.973 58.225 19.4959C58.0275 19.1534 57.4968 19.4633 57.6902 19.8058Z" fill="#46A358"/>
<path d="M60.1625 20.0056C60.467 20.4174 60.7714 20.8293 61.0758 21.2371C61.3062 21.5511 61.8451 21.2452 61.6106 20.9272C61.3062 20.5153 61.0018 20.1034 60.6973 19.6957C60.4629 19.3858 59.9281 19.6875 60.1625 20.0056Z" fill="#46A358"/>
<path d="M61.6846 25.3394C61.7875 26.053 61.8944 26.7666 61.9973 27.4803C62.0549 27.8676 62.6473 27.7045 62.5938 27.3171C62.4909 26.6035 62.384 25.8899 62.2811 25.1763C62.2194 24.7889 61.627 24.9561 61.6846 25.3394Z" fill="#46A358"/>
<path d="M59.6113 23.5085C59.7141 23.8469 59.817 24.1895 59.9198 24.5279C60.035 24.9031 60.6274 24.744 60.5163 24.3648C60.4135 24.0263 60.3106 23.6838 60.2078 23.3453C60.0926 22.9702 59.4961 23.1292 59.6113 23.5085Z" fill="#46A358"/>
<path d="M62.8818 31.1747C62.927 31.6599 62.9188 32.1452 62.8406 32.6263C62.7789 33.0097 63.3713 33.1769 63.4371 32.7895C63.5235 32.2512 63.5523 31.717 63.5029 31.1747C63.4618 30.7873 62.8447 30.7832 62.8818 31.1747Z" fill="#46A358"/>
<path d="M61.4501 33.1116C61.4501 33.4867 61.4501 33.8578 61.4501 34.2329C61.4501 34.6285 62.0672 34.6285 62.0672 34.2329C62.0672 33.8578 62.0672 33.4867 62.0672 33.1116C62.0672 32.716 61.4501 32.716 61.4501 33.1116Z" fill="#46A358"/>
<path d="M62.0878 22.8928C62.2565 23.3006 62.4293 23.7084 62.5979 24.1162C62.6637 24.2711 62.8036 24.3771 62.9764 24.3282C63.1204 24.2915 63.2561 24.1039 63.1903 23.9531C63.0216 23.5453 62.8489 23.1375 62.6802 22.7297C62.6144 22.5748 62.4745 22.4687 62.3017 22.5177C62.1577 22.5544 62.0261 22.742 62.0878 22.8928Z" fill="#46A358"/>
<path d="M60.9359 29.9513C60.9359 30.1878 60.9359 30.4284 60.9359 30.6649C60.9359 31.0605 61.553 31.0605 61.553 30.6649C61.553 30.4284 61.553 30.1878 61.553 29.9513C61.553 29.5558 60.9359 29.5558 60.9359 29.9513Z" fill="#46A358"/>
<path d="M62.1701 36.7817C62.1536 37.0712 62.0837 37.3485 61.9767 37.6176C61.915 37.7726 62.0467 37.952 62.1906 37.9928C62.3675 38.0417 62.5074 37.9316 62.5691 37.7807C62.7007 37.4586 62.7666 37.1283 62.7871 36.7817C62.8118 36.3861 62.1948 36.3902 62.1701 36.7817Z" fill="#46A358"/>
<path d="M36.2903 18.8842C36.0805 19.186 35.8707 19.4877 35.6568 19.7895C35.4305 20.1157 35.9653 20.4216 36.1916 20.0994C36.4014 19.7977 36.6112 19.4959 36.8251 19.1941C37.0472 18.8679 36.5124 18.5621 36.2903 18.8842Z" fill="#46A358"/>
<path d="M34.5296 23.3453C34.4514 23.7163 34.3774 24.0874 34.2992 24.4626C34.2211 24.8459 34.8135 25.0131 34.8957 24.6257C34.9739 24.2546 35.0479 23.8835 35.1261 23.5084C35.2043 23.1251 34.6078 22.9619 34.5296 23.3453Z" fill="#46A358"/>
<path d="M34.3321 21.1229C34.0072 21.5511 33.7644 22.0241 33.5999 22.5338C33.4765 22.909 34.073 23.068 34.1964 22.6969C34.3486 22.2361 34.5749 21.8202 34.8669 21.4328C35.1055 21.1147 34.5666 20.813 34.3321 21.1229Z" fill="#46A358"/>
<path d="M33.0774 25.1803C33.0034 25.69 32.9252 26.1956 32.8512 26.7054C32.7936 27.0887 33.3901 27.2559 33.4477 26.8685C33.5217 26.3587 33.5999 25.8531 33.6739 25.3434C33.7315 24.956 33.135 24.7888 33.0774 25.1803Z" fill="#46A358"/>
<path d="M33.6945 28.1163C33.6411 28.626 33.674 29.1276 33.7727 29.6292C33.8467 30.0166 34.4432 29.8534 34.3692 29.4661C34.2828 29.0175 34.2664 28.5689 34.3157 28.1163C34.3486 27.7248 33.7316 27.7289 33.6945 28.1163Z" fill="#46A358"/>
<path d="M34.2005 31.9903C34.2334 32.2962 34.2705 32.602 34.3034 32.9078C34.3198 33.071 34.4309 33.2137 34.6119 33.2137C34.7641 33.2137 34.941 33.075 34.9204 32.9078C34.8875 32.602 34.8505 32.2962 34.8176 31.9903C34.8011 31.8272 34.6901 31.6845 34.5091 31.6845C34.3568 31.6845 34.1841 31.8232 34.2005 31.9903Z" fill="#46A358"/>
<path d="M33.2008 34.2902C33.4394 34.6776 33.6122 35.0854 33.7192 35.5298C33.8138 35.9132 34.4062 35.75 34.3157 35.3667C34.1964 34.8774 33.9989 34.4125 33.7356 33.9803C33.5258 33.6459 32.9952 33.9558 33.2008 34.2902Z" fill="#46A358"/>
<path d="M34.5173 36.8633C34.5872 37.0345 34.653 37.2017 34.723 37.373C34.7847 37.5239 34.9286 37.634 35.1014 37.585C35.2495 37.5443 35.3812 37.3648 35.3153 37.2099C35.2454 37.0386 35.1796 36.8714 35.1096 36.7002C35.0479 36.5493 34.904 36.4392 34.7312 36.4881C34.5872 36.5248 34.4556 36.7083 34.5173 36.8633Z" fill="#46A358"/>
</g>
<circle cx="37" cy="56" r="37" fill="#46A358" fill-opacity="0.13"/>
<defs>
<clipPath id="clip0_101_251">
<rect width="68" height="49" fill="white" transform="translate(14 39)"/>
</clipPath>
<clipPath id="clip1_101_251">
<rect width="35" height="39" fill="white" transform="translate(31)"/>
</clipPath>
</defs>
</svg>
