<svg width="90" height="90" viewBox="0 0 90 90" fill="none" xmlns="http://www.w3.org/2000/svg">
<g clip-path="url(#clip0_101_519)">
<path d="M37.3859 46.6164C35.0446 52.631 33.3971 58.9163 32.8568 65.3709C32.3966 70.8879 32.5367 76.8381 35.5582 81.6511C35.9051 82.2028 36.7589 81.6748 36.412 81.1197C33.3804 76.2932 33.3871 70.238 33.914 64.7244C34.501 58.5812 36.1285 52.5937 38.3564 46.8669C38.5898 46.261 37.6193 46.0173 37.3859 46.6164Z" fill="#727272"/>
<path d="M67.7884 45.6855C73.1145 49.7472 73.1212 57.1934 73.6948 63.3061C73.985 66.3896 74.3852 69.4831 74.5253 72.5801C74.6553 75.4097 74.4219 78.4153 72.2141 80.419C71.7338 80.8556 72.4575 81.5563 72.9344 81.123C74.8788 79.3596 75.4791 76.8346 75.5458 74.2725C75.6425 70.6238 75.0322 66.9142 74.692 63.2892C74.095 56.9193 74.0217 49.1819 68.4788 44.9545C67.9718 44.5652 67.2748 45.2929 67.7884 45.6855Z" fill="#727272"/>
<path d="M35.7583 81.8541C38.5831 82.8864 41.4713 83.1437 44.4429 83.3975C47.7312 83.6785 51.0496 84.1015 54.3547 83.9831C57.7098 83.8646 61.0749 83.3806 64.41 83.0151C67.3281 82.6935 70.223 82.2874 72.9444 81.1095C73.528 80.8556 73.2512 79.8775 72.6576 80.1347C69.8361 81.3566 66.8412 81.7357 63.8163 82.0606C60.668 82.3991 57.4997 82.856 54.3347 82.9677C51.2331 83.0794 48.1248 82.6969 45.0365 82.4363C41.9582 82.1723 38.9367 81.9421 36.0051 80.8726C35.3981 80.6458 35.158 81.6341 35.7583 81.8541Z" fill="#727272"/>
<path d="M37.626 47.1851C39.9539 48.1497 42.3318 49.0026 44.8431 49.3039C47.4544 49.6153 50.1158 49.1685 52.7439 49.2362C54.2013 49.2734 55.512 49.4731 56.9827 49.2599C58.2501 49.0737 59.5174 48.8165 60.748 48.4611C63.2994 47.7232 65.7707 46.6943 68.2753 45.8075C68.879 45.5943 68.5988 44.6195 67.9885 44.8327C63.0859 46.5691 58.4902 48.5965 53.1974 48.2478C50.9963 48.1023 48.8051 48.4306 46.6107 48.4103C43.6558 48.3798 40.8143 47.4186 38.1062 46.2983C37.5226 46.0546 37.029 46.938 37.626 47.1851Z" fill="#727272"/>
<path d="M7.66368 50.2414C13.2666 51.1349 18.4793 53.8257 22.3847 58.0193C26.1633 62.0775 28.2878 67.4253 32.4099 71.1924C32.8868 71.6291 33.5839 70.898 33.1036 70.4614C28.7347 66.4674 26.5502 60.6898 22.348 56.5368C18.4126 52.6479 13.3233 50.1195 7.91047 49.2564C7.27681 49.1549 7.02668 50.1398 7.66368 50.2414Z" fill="#727272"/>
<path d="M8.53746 48.4238C13.6235 47.2459 19.0296 47.9465 23.5987 50.5426C27.2439 52.614 30.2355 55.887 34.5877 56.3337C35.2281 56.3981 35.2014 55.3827 34.5677 55.3183C29.6852 54.8174 26.1633 50.353 21.761 48.5185C17.4688 46.7314 12.763 46.4065 8.25398 47.449C7.62365 47.5945 7.91047 48.5693 8.53746 48.4238Z" fill="#727272"/>
<path d="M7.7237 47.7435C7.34017 48.2782 7.09338 48.9044 7.00666 49.5576C6.96998 49.8318 7.08671 50.0992 7.37019 50.1737C7.60698 50.238 7.94048 50.0789 7.97717 49.8047C8.05388 49.2226 8.25732 48.7115 8.59749 48.2342C8.75758 48.0109 8.6175 47.669 8.40406 47.5438C8.14726 47.3982 7.88045 47.5235 7.7237 47.7435Z" fill="#727272"/>
<path d="M71.8105 48.6709C73.8782 44.6533 80.4483 44.1354 84.1569 45.9767C88.1757 47.9737 90.03 52.8103 88.3825 57.0412C86.9484 60.7271 83.2631 62.5311 80.2316 64.6567C78.9542 65.5536 77.5335 66.5622 76.6497 67.8857C75.7259 69.27 75.8459 71.03 74.9321 72.411C74.5719 72.9559 75.4491 73.4433 75.8059 72.9051C76.3829 72.0353 76.5496 71.1079 76.8064 70.1128C77.17 68.7217 77.897 67.8281 78.9409 66.9176C80.7385 65.3505 82.8462 64.2167 84.7606 62.812C88.149 60.3243 90.5269 56.7907 89.8966 52.3636C89.3196 48.3324 86.1246 44.9985 82.1792 44.2641C78.2038 43.5228 72.9644 44.237 70.9334 48.1801C70.6365 48.7555 71.5103 49.2497 71.8105 48.6709Z" fill="#727272"/>
<path d="M72.8244 51.2263C74.2084 48.4238 77.3601 47.6995 80.2216 47.9229C82.1292 48.0718 83.3065 48.8334 84.3037 50.4952C85.4076 52.3297 85.3542 53.8833 84.7306 55.8396C83.7501 58.9061 81.9825 60.3277 79.2644 61.7662C77.4835 62.7071 74.7654 63.9391 74.055 66.0207C73.8449 66.6401 74.8154 66.8838 75.0255 66.2712C75.6725 64.3757 78.8475 63.1437 80.4817 62.2671C81.8991 61.5089 83.2265 60.6729 84.1836 59.336C85.6978 57.2239 86.9417 53.775 85.8445 51.2737C84.5038 48.214 82.4527 46.8567 79.1777 46.8804C76.2628 46.9007 73.3246 47.9567 71.9539 50.7321C71.6638 51.3143 72.5376 51.8085 72.8244 51.2263Z" fill="#727272"/>
<path d="M54.308 58.571C51.3665 59.0144 48.8819 61.2348 48.585 64.3385C48.3016 67.2967 50.2693 71.1485 53.611 70.9217C56.6593 70.7152 59.3673 67.7164 59.6475 64.7176C59.9576 61.4175 57.5197 58.5406 54.208 58.6861C53.5643 58.7132 53.5843 59.7286 54.228 59.7015C57.1328 59.5729 59.1339 62.2671 58.5903 65.1035C58.15 67.3983 55.9689 69.7134 53.591 69.9097C50.6695 70.15 49.1787 66.3964 49.6423 63.9594C50.0858 61.624 52.0569 59.9317 54.328 59.5898C54.955 59.4917 54.945 58.4729 54.308 58.571Z" fill="#727272"/>
<path d="M54.8817 59.0144C54.7049 56.8618 58.0366 53.5888 59.7042 56.0799C60.2211 56.8516 60.7214 58.2224 60.5079 59.1735C60.2778 60.1923 59.294 60.9538 58.5402 61.58C58.0433 61.9929 58.7704 62.6936 59.2606 62.284C60.4479 61.2991 61.6685 60.1178 61.5552 58.4289C61.4618 57.0479 60.708 55.227 59.5208 54.4688C56.9861 52.8476 53.6777 56.5605 53.8811 59.0381C53.9345 59.6846 54.935 59.6677 54.8817 59.0144Z" fill="#727272"/>
<path d="M59.5274 62.5108C60.7814 61.7561 64.0264 61.9557 63.6896 64.1355C63.3694 66.2137 60.718 66.2983 59.1472 66.3186C58.5035 66.3254 58.5236 67.3408 59.1672 67.334C61.3717 67.3069 65.2271 66.6029 64.6768 63.4382C64.2432 60.9539 60.7881 60.568 59.0038 61.6444C58.4502 61.9794 58.9705 62.8459 59.5274 62.5108Z" fill="#727272"/>
<path d="M58.5202 67.52C60.2745 68.3053 62.2488 70.6373 60.5813 72.5192C58.6303 74.7192 55.8088 72.5429 55.0884 70.4207C54.8783 69.8047 53.9178 70.089 54.1279 70.7118C55.0618 73.4534 58.4268 75.8226 61.0215 73.4974C63.5429 71.2398 61.5385 67.7671 59.0072 66.6299C58.4235 66.3692 57.9333 67.256 58.5202 67.52Z" fill="#727272"/>
<path d="M53.6477 70.6745C53.7377 72.3804 53.2675 74.9189 51.0063 74.6143C49.9791 74.4755 49.1887 73.538 49.2354 72.4752C49.2754 71.5207 49.9391 70.4072 50.3026 69.5339C50.5494 68.9382 49.6789 68.4373 49.4288 69.0398C48.8985 70.3192 47.9781 71.8118 48.3182 73.2571C48.595 74.4281 49.5055 75.3589 50.6728 75.5925C53.651 76.1916 54.7749 73.0743 54.6482 70.6509C54.6149 70.001 53.6143 70.0179 53.6477 70.6745Z" fill="#727272"/>
<path d="M50.1659 68.2715C48.3016 69.0533 45.4234 68.8537 44.773 66.481C44.4896 65.4385 44.8064 64.2065 45.7702 63.6413C46.7074 63.093 47.918 63.2385 48.9386 63.3637C49.5689 63.4416 49.8223 62.4566 49.1853 62.3788C47.7713 62.2062 46.1671 62.0539 44.9498 62.9745C43.9393 63.7394 43.5291 65.0798 43.7225 66.3152C44.2228 69.5069 47.9013 70.3091 50.4493 69.2429C51.043 68.9992 50.7628 68.021 50.1659 68.2715Z" fill="#727272"/>
<path d="M49.5455 62.4938C47.8613 61.58 46.9809 58.2224 48.4583 56.7703C50.3993 54.8648 52.7839 57.5657 53.9578 59.0279C54.3647 59.5322 55.0517 58.7978 54.6515 58.2968C53.1174 56.3879 49.799 53.4669 47.5312 56.2186C45.8636 58.2461 46.8608 62.1892 49.0586 63.384C49.6256 63.692 50.1158 62.8052 49.5455 62.4938Z" fill="#727272"/>
<path d="M51.153 69.9571C50.3626 70.7288 49.849 72.8171 51.063 73.45C52.5171 74.2116 53.1608 71.6223 53.3542 70.6881C53.4409 70.2617 52.7939 70.0958 52.7072 70.5223C52.6205 70.9454 52.5104 71.3617 52.357 71.7679C52.2803 71.9676 52.1969 72.1672 52.0969 72.3568C51.9435 72.6513 51.8534 72.8408 51.4999 72.8002C50.5461 72.6817 51.1997 70.8506 51.6366 70.4275C51.9435 70.1229 51.4632 69.6558 51.153 69.9571Z" fill="#727272"/>
<path d="M55.452 70.0044C55.2819 70.9792 56.3691 71.7441 57.1462 72.0927C57.9333 72.4447 59.0305 72.5632 59.7675 72.0115C60.4712 71.4835 60.3612 70.5256 60.0577 69.7945C59.6441 68.7994 58.7937 68.1293 57.8099 67.7773C57.403 67.6317 57.2429 68.2918 57.6464 68.4339C58.2401 68.6471 58.7737 69.0059 59.1506 69.5272C59.2806 69.7099 59.3807 69.9029 59.4641 70.1127C59.6575 70.6069 59.6875 70.8303 59.344 71.2601C59.0505 71.6256 58.8971 71.7103 58.4502 71.7136C58.17 71.7136 57.8799 71.6561 57.6164 71.5613C57.2129 71.4158 55.9956 70.7727 56.099 70.177C56.1723 69.7438 55.5287 69.5745 55.452 70.0044Z" fill="#727272"/>
<path d="M59.3206 65.6248C60.1577 65.838 60.9915 65.4725 61.6952 65.0223C62.2088 64.694 62.8858 64.0949 62.8258 63.401C62.7758 62.8223 62.2088 62.5481 61.7019 62.4872C60.8281 62.3789 59.971 62.7613 59.2606 63.242C58.9038 63.4823 59.2506 64.0644 59.6075 63.8207C59.9777 63.5669 60.3712 63.3435 60.8081 63.2318C61.2116 63.1269 62.3856 62.9576 62.0287 63.8072C61.7152 64.562 60.1944 65.1475 59.4841 64.9681C59.0672 64.8632 58.9038 65.5198 59.3206 65.6248Z" fill="#727272"/>
<path d="M56.209 59.3056C56.1557 58.7911 56.2624 58.28 56.6292 57.901C56.896 57.62 57.5431 57.2477 57.9233 57.4643C58.2601 57.6573 58.2368 58.4696 58.2368 58.8453C58.2334 59.3834 58.12 59.8945 57.9433 60.3988C57.7999 60.8084 58.4469 60.9709 58.5903 60.5647C58.8771 59.7456 58.9771 58.8859 58.8404 58.0228C58.747 57.4305 58.647 56.8416 57.99 56.7536C56.5359 56.5539 55.4053 57.9247 55.5487 59.3225C55.5854 59.749 56.2524 59.7388 56.209 59.3056Z" fill="#727272"/>
<path d="M50.0158 61.5698C49.4988 60.9098 49.0553 59.7117 49.2287 58.8621C49.3321 58.3476 49.4522 58.1987 49.9791 58.1446C50.506 58.0904 50.6361 58.2495 51.0163 58.5609C51.4032 58.8756 51.78 59.2006 52.1636 59.5187C52.4937 59.7929 52.9573 59.3089 52.6238 59.0313C51.6833 58.2461 50.1725 56.4353 48.9752 57.8129C48.0481 58.8824 48.6717 60.9403 49.4455 61.9252C49.709 62.2603 50.2826 61.9117 50.0158 61.5698Z" fill="#727272"/>
<path d="M48.8185 64.2065C47.5178 63.6785 45.8203 64.853 46.0204 66.3354C46.2071 67.7401 48.4383 68.2613 49.4422 67.4693C49.7757 67.2053 49.4322 66.6231 49.0953 66.8905C48.5484 67.3238 47.1876 67.2087 46.7874 66.5622C46.2005 65.6247 47.6312 64.4434 48.4983 64.7988C48.8885 64.9579 49.2154 64.3689 48.8185 64.2065Z" fill="#727272"/>
</g>
<circle cx="37" cy="53" r="37" fill="#46A358" fill-opacity="0.13"/>
<g clip-path="url(#clip1_101_519)">
<path d="M50.3006 44.027C50.3204 44.5112 50.4594 44.9693 50.7176 45.3815C50.9393 45.7414 51.5052 45.3979 51.2835 45.0413C51.0882 44.7239 50.979 44.3869 50.9658 44.0172C50.9459 43.5952 50.284 43.6083 50.3006 44.027Z" fill="#46A358"/>
<path d="M58.8093 43.9844C58.7762 44.1677 58.7398 44.3476 58.7067 44.5308C58.6736 44.7042 58.7663 44.8841 58.945 44.93C59.1105 44.9725 59.3157 44.8678 59.3488 44.6944C59.3819 44.5112 59.4183 44.3312 59.4514 44.148C59.4845 43.9746 59.3918 43.7947 59.2131 43.7489C59.0476 43.7063 58.8424 43.811 58.8093 43.9844Z" fill="#46A358"/>
<path d="M63.3401 44.6355C63.767 44.6257 63.7537 43.9714 63.3268 43.9812C62.8999 43.991 62.9131 44.6454 63.3401 44.6355Z" fill="#46A358"/>
<path d="M38.4823 45.7937C38.9092 45.7839 38.896 45.1295 38.469 45.1394C38.0421 45.1492 38.0554 45.8035 38.4823 45.7937Z" fill="#46A358"/>
<path d="M50.5885 4.3873C48.0335 11.8369 46.6402 19.6399 46.488 27.5083C46.4119 31.4638 46.6469 35.4225 47.1929 39.342C47.4444 41.1479 47.7622 42.9474 48.1461 44.7304C48.4472 46.1242 48.6028 47.7175 49.6486 48.7808C50.0954 49.2355 50.7804 48.5256 50.337 48.0741C49.2084 46.9257 49.0926 44.4981 48.8013 42.9964C48.434 41.0989 48.1428 39.1849 47.9276 37.2612C47.5206 33.6231 47.3849 29.9588 47.5139 26.301C47.7754 18.9201 49.1555 11.621 51.5516 4.62941C51.7567 4.03069 50.7904 3.79186 50.5885 4.3873Z" fill="#46A358"/>
<path d="M54.4408 4.52141C55.7778 11.9645 55.8109 19.5712 56.079 27.1058C56.2047 30.6458 56.4199 34.1956 56.347 37.7388C56.2709 41.4162 55.5461 44.8743 54.5698 48.4078C54.401 49.0196 55.3641 49.2584 55.5329 48.6499C56.4496 45.3422 57.1777 42.0771 57.3167 38.6352C57.4723 34.791 57.2108 30.9272 57.0751 27.0895C56.8038 19.4632 56.7475 11.778 55.3939 4.24332C55.2814 3.6217 54.3282 3.90306 54.4408 4.52141Z" fill="#46A358"/>
<path d="M61.629 17.3105C62.0824 27.4952 62.4928 37.8043 59.9776 47.7797C59.8221 48.3947 60.7851 48.6336 60.9407 48.0218C63.4757 37.9613 63.0819 27.5607 62.6219 17.2908C62.5921 16.6594 61.5993 16.6758 61.629 17.3105Z" fill="#46A358"/>
<path d="M58.8226 17.4609C57.416 19.0869 56.4761 20.9779 56.0624 23.0816C55.94 23.7 56.903 23.9453 57.0255 23.3237C57.4061 21.3803 58.2368 19.6463 59.5374 18.1414C59.9511 17.6604 59.2396 16.9799 58.8226 17.4609Z" fill="#46A358"/>
<path d="M68.6055 23.7164C68.5823 31.0908 67.5829 38.3964 65.6236 45.5123C65.4548 46.1242 66.4179 46.363 66.5867 45.7545C68.5658 38.5568 69.5752 31.1562 69.5984 23.6968C69.5984 23.0653 68.6055 23.085 68.6055 23.7164Z" fill="#46A358"/>
<path d="M66.7191 21.5212C64.1509 24.4624 62.89 28.0842 61.9832 31.8106C61.8342 32.4257 62.7973 32.6678 62.9462 32.0527C63.8133 28.5029 64.9849 25.012 67.4372 22.2017C67.8509 21.724 67.1361 21.0402 66.7191 21.5212Z" fill="#46A358"/>
<path d="M42.7549 10.4171C44.5222 14.5328 45.8063 18.7991 46.6005 23.1995C46.7131 23.8212 47.6629 23.5365 47.5537 22.9182C46.7594 18.5178 45.472 14.2515 43.708 10.1357C43.4598 9.56316 42.5067 9.83471 42.7549 10.4171Z" fill="#46A358"/>
<path d="M40.9148 10.7736C40.3952 17.0193 39.8855 23.3434 40.938 29.5662C42.04 36.0572 44.7472 42.3912 46.8289 48.6237C47.0275 49.2224 47.9806 48.9444 47.782 48.3424C45.7665 42.2996 43.1619 36.1553 41.997 29.8868C40.8254 23.5757 41.3781 17.1011 41.9076 10.754C41.9606 10.1258 40.9677 10.1487 40.9148 10.7736Z" fill="#46A358"/>
<path d="M34.5969 25.8626C37.9098 28.9118 40.5938 32.478 42.606 36.4858C42.8906 37.0518 43.7345 36.5348 43.4532 35.9721C41.4046 31.8923 38.6577 28.2575 35.2853 25.1527C34.8187 24.7241 34.1303 25.4308 34.5969 25.8626Z" fill="#46A358"/>
<path d="M32.3233 27.1223C34.8882 34.6995 38.34 41.9364 42.6258 48.7088C42.9634 49.2454 43.8139 48.735 43.473 48.1952C39.2302 41.4915 35.8148 34.3396 33.2764 26.8409C33.0745 26.2454 32.1214 26.5203 32.3233 27.1223Z" fill="#46A358"/>
<path d="M38.0686 46.7621C36.6058 44.1775 34.4612 42.028 31.7938 40.6604C31.251 40.3823 30.7314 40.4543 31.7838 40.3496C32.1677 40.3103 32.5649 40.294 32.9488 40.3005C34.1998 40.3136 35.3316 40.5361 36.4072 41.2068C37.6582 41.9854 38.7504 43.1043 39.869 44.0564C40.3522 44.4686 41.0405 43.762 40.5574 43.3497C39.1409 42.1392 37.7376 40.6277 36.0002 39.8752C35.0305 39.4531 33.9813 39.3288 32.9289 39.3256C32.2604 39.3223 30.8704 39.198 30.3111 39.7607C29.219 40.8534 31.3106 41.4979 31.9625 41.8807C34.1998 43.1829 35.9604 45.0543 37.2214 47.2856C37.5325 47.8287 38.3797 47.315 38.0686 46.7621Z" fill="#46A358"/>
<path d="M68.2812 38.7923C69.2509 36.6559 71.5046 35.9852 73.6492 35.5403C73.9636 35.4748 74.0894 35.0626 73.9305 34.8139C72.7656 32.9949 70.6442 32.8084 68.6551 32.9883C68.023 33.044 68.0363 34.0255 68.675 33.9698C70.2801 33.8259 72.1169 33.8161 73.0833 35.3276C73.1759 35.0855 73.2719 34.8434 73.3646 34.6013C70.9751 35.0953 68.483 35.9492 67.4141 38.3146C67.1526 38.8872 68.0197 39.3681 68.2812 38.7923Z" fill="#46A358"/>
<path d="M34.4314 24.9138C33.9946 25.4831 33.5048 26.193 32.78 26.4221C32.0651 26.6478 31.3006 26.3239 31.3569 25.47C31.3999 24.8026 31.9791 24.3151 32.5417 24.037C33.197 23.7131 34.9941 23.5593 34.5175 24.8026C34.2924 25.3948 35.2555 25.627 35.4806 25.0447C35.9406 23.844 34.8352 22.7938 33.6636 22.7709C32.4325 22.748 30.9995 23.5561 30.5361 24.711C30.1026 25.7808 30.556 27.1189 31.7607 27.4232C33.2334 27.7929 34.3487 26.638 35.1496 25.5976C35.5302 25.0938 34.8187 24.41 34.4314 24.9138Z" fill="#46A358"/>
<path d="M42.9965 9.68088C42.3776 9.79539 41.4807 10.1945 40.8618 9.86736C40.243 9.53692 40.3555 8.71573 40.7129 8.24134C41.0869 7.74731 41.676 7.56737 42.2717 7.73095C42.7549 7.86509 44.2607 9.11488 43.2116 9.54674C42.6291 9.78557 42.9038 10.7311 43.4962 10.489C44.7373 9.9786 44.6943 8.55869 43.8967 7.64589C43.0924 6.72327 41.6528 6.3732 40.5772 7.0439C39.6373 7.6328 39.1144 8.9153 39.6241 9.94261C40.3455 11.4018 42.0334 10.8521 43.2811 10.6231C43.9066 10.5053 43.6187 9.5631 42.9965 9.68088Z" fill="#46A358"/>
<path d="M54.7916 3.6937C53.9311 3.9129 52.9283 4.17136 52.0414 3.9587C50.7937 3.66425 50.7473 2.25088 51.6244 1.51803C52.326 0.932395 53.4016 0.866961 54.2521 1.12215C54.7883 1.28246 55.4171 1.62926 55.5627 2.21162C55.7017 2.75799 55.4336 3.29782 54.8776 3.43196C54.2587 3.58246 54.54 4.5247 55.1622 4.37421C56.6416 4.01432 56.9659 2.19199 56.0558 1.11888C55.0299 -0.0883704 52.9713 -0.294486 51.5913 0.372937C50.2939 1.0011 49.503 2.68929 50.3668 3.97833C51.3662 5.47349 53.62 5.00237 55.0729 4.6294C55.6918 4.47563 55.4105 3.53338 54.7916 3.6937Z" fill="#46A358"/>
<path d="M61.8706 13.3419C60.4442 13.09 58.8821 13.4989 58.2302 14.8959C57.7006 16.0279 58.2004 17.4969 59.4315 17.9222C60.6726 18.3508 62.5557 17.8208 63.2441 16.6823C63.9027 15.5862 63.4261 14.1958 62.3869 13.5414C61.8475 13.2012 61.3676 14.0616 61.9037 14.3986C62.5723 14.8174 62.7907 15.7695 62.2446 16.3813C61.7581 16.9276 60.7189 17.1599 60.014 17.0356C59.1072 16.8753 58.7564 15.9363 59.2098 15.1609C59.7062 14.3136 60.7289 14.1369 61.629 14.2939C62.2545 14.4052 62.4994 13.4531 61.8706 13.3419Z" fill="#46A358"/>
<path d="M69.5653 18.7663C68.311 18.6845 66.5735 18.8612 66.2955 20.3793C66.0671 21.6225 67.4968 23.2649 68.5923 23.7066C71.7198 24.9662 72.3883 18.6845 69.691 18.8514C69.0556 18.8907 69.0721 19.8722 69.7109 19.8329C70.5879 19.7773 70.3728 21.8286 70.1742 22.2343C69.7076 23.1995 68.814 22.8461 68.2249 22.231C67.7715 21.7566 66.9574 20.9158 67.4273 20.2353C67.8807 19.581 68.8934 19.7053 69.5851 19.7478C70.2239 19.7904 70.1974 18.8089 69.5653 18.7663Z" fill="#46A358"/>
<path d="M51.6376 6.17682C51.5383 6.50726 51.4357 6.8377 51.3364 7.16814C51.214 7.57383 51.856 7.73087 51.9785 7.32845C52.0778 6.99801 52.1804 6.66757 52.2797 6.33713C52.4021 5.93144 51.7601 5.7744 51.6376 6.17682Z" fill="#46A358"/>
<path d="M53.0508 6.23257C53.0541 6.45177 53.0607 6.6677 53.064 6.8869C53.0739 7.30895 53.7358 7.29586 53.7259 6.87382C53.7226 6.65461 53.716 6.43868 53.7127 6.21948C53.7061 5.79743 53.0442 5.81052 53.0508 6.23257Z" fill="#46A358"/>
<path d="M52.5808 10.1683C53.0078 10.1585 52.9945 9.50412 52.5676 9.51394C52.144 9.52048 52.1572 10.1748 52.5808 10.1683Z" fill="#46A358"/>
<path d="M50.605 10.5348C50.5753 10.8979 50.5455 11.2643 50.519 11.6275C50.5058 11.8042 50.6911 11.9514 50.8566 11.9481C51.0518 11.9448 51.1677 11.7911 51.1809 11.6144C51.2107 11.2513 51.2405 10.8848 51.2669 10.5217C51.2802 10.345 51.0948 10.1978 50.9294 10.201C50.7341 10.2043 50.6183 10.3581 50.605 10.5348Z" fill="#46A358"/>
<path d="M52.1704 11.5948C52.1804 11.9939 52.187 12.393 52.1969 12.7955C52.2069 13.2175 52.8688 13.2044 52.8588 12.7824C52.8489 12.3832 52.8423 11.9841 52.8324 11.5817C52.8224 11.1596 52.1605 11.1727 52.1704 11.5948Z" fill="#46A358"/>
<path d="M53.342 9.27849C53.385 9.60566 53.4281 9.93283 53.4711 10.2567C53.4943 10.4334 53.6167 10.5806 53.8087 10.5773C53.9708 10.5741 54.1562 10.4203 54.133 10.2436C54.09 9.91647 54.0469 9.5893 54.0039 9.2654C53.9808 9.08873 53.8583 8.94151 53.6664 8.94478C53.5009 8.94805 53.3155 9.10182 53.342 9.27849Z" fill="#46A358"/>
<path d="M53.438 14.186C53.4413 14.3692 53.4446 14.5491 53.4479 14.7324C53.4578 15.1544 54.1197 15.1413 54.1098 14.7193C54.1065 14.5361 54.1032 14.3561 54.0999 14.1729C54.09 13.7509 53.4281 13.7639 53.438 14.186Z" fill="#46A358"/>
<path d="M52.005 8.86954C51.9719 9.19343 52.0447 9.4977 52.1804 9.79215C52.2532 9.95246 52.4981 9.98518 52.6371 9.90012C52.8059 9.7987 52.8191 9.61221 52.7463 9.44862C52.6603 9.26214 52.647 9.05602 52.6669 8.85318C52.6834 8.67651 52.4915 8.52928 52.3293 8.53255C52.134 8.5391 52.0215 8.69287 52.005 8.86954Z" fill="#46A358"/>
<path d="M49.6949 14.0649C49.6287 14.4313 49.5625 14.7944 49.4964 15.1609C49.4202 15.5731 50.0623 15.7367 50.1384 15.3212C50.2046 14.9548 50.2708 14.5916 50.337 14.2252C50.4098 13.8129 49.771 13.6494 49.6949 14.0649Z" fill="#46A358"/>
<path d="M51.5185 16.3223C51.4887 16.5775 51.4556 16.8327 51.4258 17.0879C51.4059 17.2646 51.4754 17.438 51.6641 17.487C51.8196 17.5263 52.0447 17.4282 52.0678 17.2515C52.0976 16.9963 52.1307 16.7411 52.1605 16.4859C52.1804 16.3092 52.1109 16.1358 51.9222 16.0868C51.7667 16.0442 51.5416 16.1457 51.5185 16.3223Z" fill="#46A358"/>
<path d="M50.936 20.978C50.9889 21.2561 50.9559 21.5277 50.8665 21.7927C50.7308 22.1918 51.3728 22.3522 51.5085 21.953C51.6376 21.5735 51.6475 21.1842 51.5714 20.7916C51.5383 20.6182 51.3199 20.5233 51.161 20.5724C50.9724 20.628 50.8996 20.8046 50.936 20.978Z" fill="#46A358"/>
<path d="M48.9139 18.3378C48.8841 18.593 48.851 18.8482 48.8212 19.1034C48.8014 19.28 48.8709 19.4534 49.0595 19.5025C49.215 19.5418 49.4401 19.4436 49.4633 19.267C49.493 19.0118 49.5261 18.7566 49.5559 18.5014C49.5758 18.3247 49.5063 18.1513 49.3176 18.1022C49.1588 18.063 48.9337 18.1611 48.9139 18.3378Z" fill="#46A358"/>
<path d="M53.4214 18.8579C53.5009 19.2211 53.577 19.5842 53.6564 19.9441C53.7458 20.3563 54.3812 20.1666 54.2918 19.7576C54.2124 19.3945 54.1363 19.0313 54.0569 18.6714C53.9675 18.2592 53.3354 18.4457 53.4214 18.8579Z" fill="#46A358"/>
<path d="M53.855 23.6673C53.8616 24.0305 53.8715 24.3936 53.8782 24.7568C53.8881 25.1789 54.55 25.1658 54.5401 24.7437C54.5334 24.3806 54.5235 24.0174 54.5169 23.6542C54.5103 23.2322 53.8484 23.2453 53.855 23.6673Z" fill="#46A358"/>
<path d="M53.0739 28.4637C53.117 28.7189 53.1567 28.9708 53.1997 29.226C53.2295 29.3994 53.4545 29.491 53.6101 29.4452C53.7987 29.3896 53.8616 29.2129 53.8318 29.0395C53.7888 28.7843 53.7491 28.5324 53.7061 28.2772C53.6763 28.1038 53.4512 28.0122 53.2957 28.058C53.107 28.1103 53.0442 28.287 53.0739 28.4637Z" fill="#46A358"/>
<path d="M50.3734 26.0295C50.3767 26.2487 50.3833 26.4646 50.3866 26.6839C50.3965 27.1059 51.0584 27.0928 51.0485 26.6708C51.0452 26.4516 51.0386 26.2356 51.0353 26.0164C51.0287 25.5944 50.3668 25.6075 50.3734 26.0295Z" fill="#46A358"/>
<path d="M48.5498 23.2289C48.573 23.5004 48.5465 23.7556 48.4671 24.0174C48.3446 24.423 48.9867 24.5801 49.1091 24.1777C49.2051 23.8669 49.2382 23.5397 49.2117 23.2158C49.1753 22.8003 48.5134 22.8101 48.5498 23.2289Z" fill="#46A358"/>
<path d="M49.3805 30.7604C49.3474 31.0156 49.3176 31.2708 49.2845 31.526C49.2614 31.7026 49.3342 31.876 49.5228 31.9251C49.6784 31.9644 49.9034 31.8662 49.9266 31.6896C49.9597 31.4344 49.9895 31.1792 50.0226 30.924C50.0457 30.7473 49.9729 30.5739 49.7843 30.5248C49.6254 30.4856 49.4037 30.5837 49.3805 30.7604Z" fill="#46A358"/>
<path d="M52.7562 34.4672C52.7993 34.6831 52.839 34.9023 52.882 35.1183C52.9151 35.2917 53.1335 35.3866 53.2924 35.3375C53.4777 35.2819 53.5472 35.1052 53.5141 34.9318C53.4711 34.7159 53.4314 34.4967 53.3883 34.2807C53.3552 34.1073 53.1368 34.0125 52.978 34.0615C52.7926 34.1171 52.7231 34.2938 52.7562 34.4672Z" fill="#46A358"/>
<path d="M50.9658 38.2133C51.0452 38.5764 51.1279 38.9363 51.2074 39.2995C51.3 39.7117 51.9322 39.5219 51.8428 39.113C51.7634 38.7498 51.6806 38.3899 51.6012 38.0268C51.5085 37.6145 50.8731 37.801 50.9658 38.2133Z" fill="#46A358"/>
<path d="M54.6592 40.5819C54.5897 40.8371 54.5235 41.0922 54.454 41.3507C54.3448 41.7597 54.9868 41.92 55.0961 41.511C55.1656 41.2558 55.2318 41.0006 55.3013 40.7422C55.4105 40.3332 54.7684 40.1729 54.6592 40.5819Z" fill="#46A358"/>
<path d="M54.1661 12.187C54.2091 12.4422 54.2521 12.6942 54.2952 12.9494C54.3249 13.1227 54.55 13.2144 54.7055 13.1686C54.8942 13.1129 54.9571 12.9363 54.9273 12.7629C54.8843 12.5077 54.8412 12.2558 54.7982 12.0006C54.7684 11.8272 54.5434 11.7356 54.3878 11.7814C54.2025 11.837 54.1363 12.0136 54.1661 12.187Z" fill="#46A358"/>
<path d="M54.2455 16.679C54.2918 17.0061 54.3382 17.33 54.3845 17.6572C54.411 17.8306 54.5268 17.9811 54.7221 17.9778C54.8843 17.9745 55.0696 17.8208 55.0464 17.6441C55.0001 17.3169 54.9538 16.993 54.9074 16.6659C54.8809 16.4925 54.7651 16.342 54.5698 16.3452C54.4077 16.3485 54.219 16.5056 54.2455 16.679Z" fill="#46A358"/>
<path d="M59.2098 20.3106C59.1204 20.8243 59.0278 21.3347 58.9384 21.8483C58.8656 22.2605 59.5076 22.4241 59.5805 22.0086C59.6698 21.495 59.7625 20.9846 59.8518 20.4709C59.9246 20.0587 59.2826 19.8951 59.2098 20.3106Z" fill="#46A358"/>
<path d="M60.4972 19.388C60.5038 19.6432 60.5071 19.8984 60.5137 20.1503C60.5237 20.5724 61.1856 20.5593 61.1756 20.1372C61.169 19.8821 61.1657 19.6269 61.1591 19.3749C61.1492 18.9529 60.4906 18.966 60.4972 19.388Z" fill="#46A358"/>
<path d="M60.1364 22.8854C60.0736 23.4318 60.014 23.9782 59.9511 24.5245C59.9048 24.9433 60.5667 24.9237 60.613 24.5114C60.6759 23.9651 60.7355 23.4187 60.7984 22.8723C60.8447 22.4568 60.1828 22.4732 60.1364 22.8854Z" fill="#46A358"/>
<path d="M58.4221 23.844C58.2798 24.1384 58.1408 24.4329 57.9985 24.7241C57.8165 25.1036 58.3956 25.4242 58.5777 25.0414C58.72 24.747 58.859 24.4525 59.0013 24.1613C59.1833 23.7818 58.6042 23.4612 58.4221 23.844Z" fill="#46A358"/>
<path d="M57.426 22.0937C57.3399 22.3162 57.2572 22.5354 57.1711 22.7579C57.1082 22.9247 57.2506 23.1145 57.4094 23.157C57.5981 23.2061 57.747 23.085 57.8132 22.9214C57.8992 22.699 57.982 22.4798 58.068 22.2573C58.1309 22.0904 57.9886 21.9007 57.8297 21.8581C57.6411 21.8091 57.4922 21.9268 57.426 22.0937Z" fill="#46A358"/>
<path d="M59.3157 26.3926C59.3024 26.6838 59.2925 26.975 59.2793 27.2662C59.2627 27.6882 59.9246 27.6718 59.9412 27.2531C59.9544 26.9619 59.9643 26.6707 59.9776 26.3795C59.9941 25.9575 59.3322 25.9738 59.3157 26.3926Z" fill="#46A358"/>
<path d="M60.6726 28.1103C60.6593 28.3818 60.6461 28.6566 60.6329 28.9282C60.6229 29.1049 60.8017 29.2521 60.9704 29.2488C61.1591 29.2455 61.2849 29.0918 61.2948 28.9151C61.308 28.6435 61.3213 28.3687 61.3345 28.0972C61.3444 27.9205 61.1657 27.7733 60.9969 27.7766C60.8083 27.7798 60.6825 27.9336 60.6726 28.1103Z" fill="#46A358"/>
<path d="M60.1497 31.0351C60.1199 31.2707 60.0868 31.5095 60.057 31.7451C60.0339 31.9185 60.11 32.0951 60.2953 32.1442C60.4542 32.1835 60.6759 32.0853 60.6991 31.9086C60.7288 31.6731 60.7619 31.4342 60.7917 31.1987C60.8149 31.0253 60.7388 30.8486 60.5534 30.7995C60.3946 30.757 60.1728 30.8584 60.1497 31.0351Z" fill="#46A358"/>
<path d="M57.6808 29.0133C57.6477 29.2129 57.6146 29.4157 57.5815 29.6153C57.5517 29.7887 57.6378 29.9654 57.8198 30.0145C57.982 30.0537 58.1938 29.9523 58.2235 29.7789C58.2566 29.5793 58.2897 29.3765 58.3228 29.1769C58.3526 29.0035 58.2666 28.8268 58.0845 28.7778C57.9224 28.7352 57.7106 28.8367 57.6808 29.0133Z" fill="#46A358"/>
<path d="M58.1574 34.2153C58.1607 34.3592 58.164 34.5064 58.1673 34.6504C58.1772 35.0724 58.8391 35.0593 58.8292 34.6373C58.8259 34.4934 58.8226 34.3461 58.8193 34.2022C58.8093 33.7801 58.1474 33.7932 58.1574 34.2153Z" fill="#46A358"/>
<path d="M60.2953 36.1356C60.2986 36.2796 60.3019 36.4268 60.3052 36.5708C60.3152 36.9928 60.9771 36.9797 60.9671 36.5577C60.9638 36.4137 60.9605 36.2665 60.9572 36.1226C60.9473 35.7005 60.2854 35.7136 60.2953 36.1356Z" fill="#46A358"/>
<path d="M58.389 40.101C58.4155 40.3562 58.389 40.5918 58.3063 40.8339C58.25 41.0007 58.3824 41.1905 58.5446 41.233C58.7299 41.2788 58.8888 41.1643 58.9483 40.9975C59.0476 40.7063 59.084 40.3955 59.0509 40.0912C59.0311 39.9146 58.902 39.7673 58.7134 39.7706C58.5446 39.7706 58.3692 39.9244 58.389 40.101Z" fill="#46A358"/>
<path d="M59.2065 18.6518C59.1204 18.8186 59.0311 18.9855 58.945 19.1491C58.7498 19.522 59.3256 19.8427 59.5242 19.4664C59.6102 19.2996 59.6996 19.1327 59.7856 18.9691C59.9809 18.5962 59.405 18.2755 59.2065 18.6518Z" fill="#46A358"/>
<path d="M42.04 12.4324C42.0996 12.776 42.1625 13.1228 42.222 13.4663C42.2518 13.6397 42.4769 13.7313 42.6324 13.6855C42.8211 13.6299 42.8872 13.4532 42.8542 13.2798C42.7946 12.9363 42.7317 12.5895 42.6721 12.2459C42.6423 12.0725 42.4173 11.9809 42.2618 12.0267C42.0731 12.0824 42.0069 12.259 42.04 12.4324Z" fill="#46A358"/>
<path d="M43.0262 14.595C43.1785 14.9549 43.334 15.318 43.4863 15.6779C43.5558 15.8415 43.7146 15.9528 43.8966 15.8971C44.0522 15.8513 44.1879 15.655 44.1184 15.4914C43.9661 15.1316 43.8106 14.7684 43.6584 14.4085C43.5889 14.2449 43.43 14.1337 43.248 14.1893C43.0924 14.2351 42.9567 14.4314 43.0262 14.595Z" fill="#46A358"/>
<path d="M42.1228 15.8023C42.0466 16.3061 42.0533 16.787 42.1426 17.2843C42.2154 17.6966 42.8475 17.5101 42.778 17.0978C42.7118 16.7249 42.7118 16.3388 42.7681 15.9626C42.8244 15.5503 42.1823 15.3867 42.1228 15.8023Z" fill="#46A358"/>
<path d="M43.3804 17.6932C43.4929 18.0007 43.6021 18.3116 43.7146 18.6191C43.8569 19.015 44.4924 18.8318 44.3501 18.4326C44.2375 18.1251 44.1283 17.8143 44.0158 17.5067C43.8735 17.1108 43.2381 17.2941 43.3804 17.6932Z" fill="#46A358"/>
<path d="M41.8414 19.0019C41.8481 19.3651 41.858 19.7282 41.8646 20.0914C41.8745 20.5134 42.5364 20.5004 42.5265 20.0783C42.5199 19.7152 42.51 19.352 42.5034 18.9888C42.4967 18.5668 41.8348 18.5799 41.8414 19.0019Z" fill="#46A358"/>
<path d="M43.0825 20.2321C43.0891 20.5592 43.0958 20.8864 43.1024 21.2136C43.1123 21.6356 43.7742 21.6225 43.7643 21.2005C43.7577 20.8733 43.751 20.5461 43.7444 20.219C43.7345 19.7969 43.0726 19.81 43.0825 20.2321Z" fill="#46A358"/>
<path d="M44.9325 20.8798C45.0649 21.2593 45.2006 21.6389 45.333 22.0184C45.472 22.4143 46.1074 22.231 45.9684 21.8319C45.836 21.4524 45.7003 21.0729 45.568 20.6933C45.429 20.2975 44.7935 20.4807 44.9325 20.8798Z" fill="#46A358"/>
<path d="M45.6573 24.1384C45.697 24.338 45.7401 24.5375 45.7798 24.7371C45.8162 24.9105 46.0313 25.0054 46.1901 24.9563C46.3755 24.9007 46.4483 24.724 46.4119 24.5506C46.3722 24.351 46.3291 24.1515 46.2894 23.9519C46.253 23.7785 46.0379 23.6836 45.8791 23.7327C45.697 23.785 45.6209 23.965 45.6573 24.1384Z" fill="#46A358"/>
<path d="M43.8404 24.1744C43.9496 24.4819 44.029 24.796 44.0654 25.1199C44.0853 25.2966 44.2144 25.4438 44.403 25.4405C44.5685 25.4372 44.7472 25.2835 44.7273 25.1068C44.6843 24.724 44.6049 24.351 44.4758 23.9879C44.3335 23.592 43.6981 23.7752 43.8404 24.1744Z" fill="#46A358"/>
<path d="M42.1426 22.869C42.1492 23.1242 42.1525 23.3794 42.1592 23.6313C42.1691 24.0534 42.831 24.0403 42.8211 23.6182C42.8144 23.363 42.8111 23.1078 42.8045 22.8559C42.7946 22.4339 42.136 22.447 42.1426 22.869Z" fill="#46A358"/>
<path d="M42.9402 26.7787C42.9667 27.1058 43.0296 27.4264 43.1388 27.734C43.2811 28.1299 43.9165 27.9466 43.7742 27.5475C43.6815 27.2923 43.622 27.0339 43.6021 26.7656C43.5723 26.3468 42.9104 26.3599 42.9402 26.7787Z" fill="#46A358"/>
<path d="M44.3898 29.5629C44.4493 29.7625 44.5089 29.9621 44.5685 30.1584C44.6876 30.5608 45.3231 30.3776 45.2039 29.9719C45.1443 29.7723 45.0848 29.576 45.0252 29.3765C44.9061 28.974 44.2706 29.1573 44.3898 29.5629Z" fill="#46A358"/>
<path d="M45.1675 27.0372C45.2072 27.1812 45.2469 27.3251 45.2867 27.4724C45.3992 27.878 46.0346 27.6916 45.9221 27.2859C45.8824 27.1419 45.8427 26.998 45.8029 26.8507C45.6904 26.445 45.055 26.6315 45.1675 27.0372Z" fill="#46A358"/>
<path d="M43.291 32.4779C43.3738 32.8018 43.4532 33.129 43.5359 33.4529C43.6385 33.8618 44.2739 33.6753 44.1713 33.2664C44.0886 32.9425 44.0092 32.6153 43.9264 32.2914C43.8238 31.8824 43.1884 32.0689 43.291 32.4779Z" fill="#46A358"/>
<path d="M44.9358 37.2416C44.9954 37.3856 45.0517 37.5295 45.1112 37.6735C45.1774 37.8371 45.3396 37.9483 45.5216 37.8927C45.6805 37.8469 45.8096 37.6506 45.7434 37.487C45.6838 37.343 45.6275 37.1991 45.568 37.0551C45.5018 36.8915 45.3396 36.7803 45.1576 36.8359C44.9987 36.8817 44.8697 37.078 44.9358 37.2416Z" fill="#46A358"/>
<path d="M66.4808 23.6836C66.3054 24.0337 66.1267 24.3805 65.9513 24.7306C65.7593 25.1068 66.3385 25.4274 66.5304 25.0479C66.7058 24.6979 66.8846 24.3511 67.06 24.001C67.2519 23.6247 66.6727 23.3074 66.4808 23.6836Z" fill="#46A358"/>
<path d="M67.4075 24.5048C67.3247 24.8353 67.2387 25.1625 67.1559 25.4929C67.05 25.9019 67.6921 26.0622 67.798 25.6532C67.8807 25.3228 67.9668 24.9956 68.0495 24.6652C68.1521 24.2595 67.51 24.0992 67.4075 24.5048Z" fill="#46A358"/>
<path d="M66.5933 27.6326C66.5106 27.9074 66.4278 28.1823 66.3418 28.4571C66.2193 28.8628 66.8614 29.0198 66.9838 28.6174C67.0666 28.3426 67.1493 28.0678 67.2354 27.7929C67.3545 27.3905 66.7125 27.2302 66.5933 27.6326Z" fill="#46A358"/>
<path d="M66.0373 26.3076C65.9678 26.4352 65.895 26.5661 65.8255 26.6936C65.6203 27.0633 66.1995 27.384 66.4047 27.011C66.4742 26.8834 66.547 26.7525 66.6165 26.6249C66.8217 26.2585 66.2425 25.9379 66.0373 26.3076Z" fill="#46A358"/>
<path d="M67.6722 26.4646C67.6424 26.7198 67.6126 26.975 67.5829 27.2302C67.563 27.4068 67.6325 27.5802 67.8211 27.6293C67.9767 27.6686 68.2017 27.5704 68.2249 27.3938C68.2547 27.1386 68.2845 26.8834 68.3143 26.6282C68.3341 26.4515 68.2646 26.2781 68.076 26.229C67.9171 26.1898 67.6921 26.2879 67.6722 26.4646Z" fill="#46A358"/>
<path d="M64.5547 28.1626C64.4885 28.372 64.3892 28.5618 64.27 28.745C64.0384 29.0983 64.6175 29.4157 64.8492 29.0623C65.0014 28.8333 65.114 28.5847 65.1967 28.3229C65.2497 28.1561 65.1239 27.9663 64.9584 27.9238C64.7731 27.8813 64.6076 27.9925 64.5547 28.1626Z" fill="#46A358"/>
<path d="M64.5348 30.9763C64.3925 31.2086 64.323 31.4736 64.3362 31.7451C64.3561 32.1639 65.018 32.1541 64.9981 31.7321C64.9915 31.5685 65.0246 31.4343 65.114 31.2969C65.3357 30.9338 64.7565 30.6164 64.5348 30.9763Z" fill="#46A358"/>
<path d="M66.259 30.2565C66.1929 30.4757 66.1267 30.6982 66.0638 30.9174C65.9446 31.3231 66.5867 31.4801 66.7058 31.0777C66.772 30.8585 66.8382 30.636 66.9011 30.4168C67.0202 30.0111 66.3782 29.8541 66.259 30.2565Z" fill="#46A358"/>
<path d="M65.713 33.4823C65.6435 33.7211 65.5773 33.9567 65.5078 34.1955C65.392 34.6012 66.034 34.7616 66.1498 34.3559C66.2193 34.117 66.2855 33.8815 66.355 33.6426C66.4709 33.2402 65.8288 33.0799 65.713 33.4823Z" fill="#46A358"/>
<path d="M67.8112 28.8366C67.7947 28.9838 67.7814 29.1278 67.7649 29.275C67.745 29.4517 67.9403 29.5989 68.1025 29.5956C68.301 29.5924 68.4069 29.4386 68.4268 29.2619C68.4433 29.1147 68.4566 28.9707 68.4731 28.8235C68.493 28.6468 68.2977 28.4996 68.1356 28.5029C67.937 28.5094 67.8311 28.6599 67.8112 28.8366Z" fill="#46A358"/>
<path d="M63.6545 35.38C63.6214 35.4912 63.585 35.5992 63.5519 35.7104C63.4261 36.1128 64.0682 36.2731 64.1939 35.8707C64.227 35.7595 64.2634 35.6515 64.2965 35.5403C64.4223 35.1378 63.7802 34.9808 63.6545 35.38Z" fill="#46A358"/>
<path d="M63.1216 38.7203C63.0521 38.9036 62.9793 39.0868 62.9098 39.27C62.8469 39.4336 62.9893 39.6266 63.1481 39.6691C63.3401 39.7182 63.4857 39.5971 63.5519 39.4336C63.6214 39.2504 63.6942 39.0671 63.7637 38.8839C63.8265 38.7203 63.6842 38.5273 63.5254 38.4848C63.3334 38.4357 63.1878 38.5535 63.1216 38.7203Z" fill="#46A358"/>
<path d="M65.7262 37.3888C65.7295 37.4968 65.7295 37.608 65.7328 37.716C65.7428 38.138 66.4047 38.1249 66.3947 37.7029C66.3914 37.5949 66.3914 37.4837 66.3881 37.3757C66.3782 36.9537 65.7163 36.9668 65.7262 37.3888Z" fill="#46A358"/>
<path d="M64.4918 41.7237C64.4752 41.8709 64.462 42.0148 64.4454 42.1621C64.4256 42.3387 64.6208 42.486 64.783 42.4827C64.9816 42.4794 65.0875 42.3257 65.1073 42.149C65.1239 42.0018 65.1371 41.8578 65.1537 41.7106C65.1735 41.5339 64.9783 41.3867 64.8161 41.3899C64.6208 41.3932 64.5116 41.547 64.4918 41.7237Z" fill="#46A358"/>
<path d="M34.2593 28.0808C34.3156 28.2607 34.3752 28.4439 34.4314 28.6239C34.5572 29.0263 35.1926 28.8398 35.0669 28.4374C35.0106 28.2575 34.951 28.0743 34.8948 27.8943C34.7657 27.4919 34.1303 27.6784 34.2593 28.0808Z" fill="#46A358"/>
<path d="M34.9411 27.3382C35.1629 27.6097 35.3879 27.8813 35.6096 28.1495C35.7222 28.2869 35.9638 28.2575 36.0763 28.1397C36.212 27.999 36.1789 27.8158 36.0663 27.6784C35.8446 27.4069 35.6196 27.1353 35.3978 26.867C35.2853 26.7296 35.0437 26.7591 34.9312 26.8769C34.7955 27.0143 34.8286 27.2008 34.9411 27.3382Z" fill="#46A358"/>
<path d="M36.212 29.6415C36.4039 29.9098 36.5959 30.178 36.7845 30.4431C37.0294 30.7866 37.5953 30.4463 37.3504 30.1028C37.1585 29.8345 36.9665 29.5662 36.7779 29.3012C36.5297 28.9577 35.9637 29.2947 36.212 29.6415Z" fill="#46A358"/>
<path d="M35.3978 30.4234C35.5501 30.6753 35.7023 30.9272 35.8545 31.1791C36.073 31.539 36.6389 31.1988 36.4205 30.8389C36.2682 30.5869 36.116 30.335 35.9638 30.0831C35.742 29.7199 35.1794 30.0602 35.3978 30.4234Z" fill="#46A358"/>
<path d="M36.8805 33.1225C37.0724 33.4628 37.2677 33.803 37.4596 34.1433C37.6681 34.5097 38.2341 34.1695 38.0256 33.803C37.8336 33.4628 37.6384 33.1225 37.4464 32.7823C37.2346 32.4158 36.672 32.7561 36.8805 33.1225Z" fill="#46A358"/>
<path d="M37.4663 32.1311C37.5987 32.3274 37.731 32.527 37.8634 32.7233C38.0984 33.0734 38.6643 32.7331 38.4293 32.383C38.297 32.1867 38.1646 31.9872 38.0322 31.7909C37.7939 31.4408 37.228 31.7778 37.4663 32.1311Z" fill="#46A358"/>
<path d="M37.7741 30.7571C37.8833 30.9894 38.0686 31.1694 38.2903 31.3002C38.661 31.5129 38.982 30.9404 38.6114 30.7277C38.479 30.6524 38.3996 30.551 38.3367 30.4169C38.2606 30.2566 38.0223 30.2239 37.88 30.3089C37.7178 30.4103 37.6979 30.5968 37.7741 30.7571Z" fill="#46A358"/>
<path d="M35.2919 32.4746C35.3349 32.6546 35.3747 32.8345 35.4177 33.0177C35.4574 33.1911 35.6659 33.286 35.8281 33.2369C36.0101 33.1846 36.0895 33.0014 36.0498 32.8313C36.0068 32.6513 35.9671 32.4714 35.924 32.2882C35.8843 32.1148 35.6758 32.0199 35.5137 32.069C35.3316 32.1213 35.2522 32.3045 35.2919 32.4746Z" fill="#46A358"/>
<path d="M37.3802 35.8936C37.5325 36.2011 37.6847 36.5086 37.8336 36.8129C37.9131 36.9732 38.148 37.0059 38.2903 36.9209C38.4558 36.8227 38.479 36.6297 38.3996 36.4694C38.2473 36.1618 38.0951 35.8543 37.9462 35.55C37.8667 35.3897 37.6317 35.357 37.4894 35.4421C37.324 35.5435 37.3008 35.7365 37.3802 35.8936Z" fill="#46A358"/>
<path d="M39.8524 34.9678C39.9683 35.1837 40.0808 35.3997 40.1966 35.6156C40.3952 35.9886 40.9578 35.645 40.7625 35.2753C40.6467 35.0594 40.5342 34.8435 40.4184 34.6275C40.2165 34.2546 39.6539 34.5948 39.8524 34.9678Z" fill="#46A358"/>
<path d="M40.607 39.6463C40.703 39.8262 40.799 40.0062 40.8982 40.1828C41.1001 40.5558 41.6627 40.2123 41.4642 39.8426C41.3682 39.6626 41.2722 39.4827 41.1729 39.306C40.971 38.933 40.4051 39.2733 40.607 39.6463Z" fill="#46A358"/>
<path d="M41.7819 37.9875C41.8944 38.1675 42.0102 38.3474 42.1228 38.5274C42.3478 38.884 42.9137 38.5437 42.6887 38.1871C42.5762 38.0072 42.4603 37.8272 42.3478 37.6473C42.1195 37.2907 41.5535 37.6309 41.7819 37.9875Z" fill="#46A358"/>
<path d="M43.0991 43.0324C43.1917 43.196 43.2877 43.3563 43.3804 43.5199C43.5922 43.8863 44.1548 43.5428 43.9463 43.1796C43.8536 43.0161 43.7577 42.8557 43.665 42.6922C43.4532 42.3257 42.8873 42.666 43.0991 43.0324Z" fill="#46A358"/>
<path d="M32.4259 41.0106C32.6476 41.1153 32.8727 41.2167 33.0944 41.3214C33.4783 41.5013 33.8026 40.9288 33.4154 40.7489C33.1937 40.6442 32.9686 40.5427 32.7469 40.438C32.3663 40.2614 32.042 40.8306 32.4259 41.0106Z" fill="#46A358"/>
<path d="M34.534 41.9625C34.7789 42.1359 35.0238 42.3126 35.2654 42.486C35.4111 42.5906 35.6361 42.5023 35.7155 42.3584C35.8115 42.1882 35.7321 42.0181 35.5865 41.9134C35.3416 41.74 35.0967 41.5633 34.8551 41.3899C34.7094 41.2853 34.4844 41.3736 34.405 41.5175C34.3123 41.6877 34.3917 41.8578 34.534 41.9625Z" fill="#46A358"/>
<path d="M34.2097 40.9615C34.3785 40.9975 34.534 41.0531 34.6863 41.1382C35.0603 41.341 35.3813 40.7685 35.0073 40.5656C34.8087 40.4577 34.5936 40.3759 34.3719 40.3268C33.9582 40.2352 33.7927 40.8699 34.2097 40.9615Z" fill="#46A358"/>
<path d="M36.1491 42.3584C36.298 42.4631 36.4469 42.5711 36.5959 42.6758C36.7415 42.7772 36.9665 42.6921 37.046 42.5482C37.1419 42.378 37.0625 42.2046 36.9169 42.1032C36.768 41.9985 36.619 41.8906 36.4701 41.7859C36.3245 41.6844 36.0994 41.7695 36.02 41.9135C35.9274 42.0836 36.0035 42.2537 36.1491 42.3584Z" fill="#46A358"/>
<path d="M36.1027 43.3367C36.1789 43.4446 36.255 43.5526 36.3311 43.6606C36.5727 44.0041 37.1386 43.6671 36.897 43.3203C36.8209 43.2124 36.7448 43.1044 36.6687 42.9964C36.4271 42.6496 35.8578 42.9899 36.1027 43.3367Z" fill="#46A358"/>
<path d="M37.602 43.8634C37.7509 43.9877 37.8998 44.112 38.0521 44.2364C38.1878 44.3509 38.3896 44.3607 38.5187 44.2265C38.6378 44.1055 38.6478 43.8765 38.5088 43.7652C38.3598 43.6409 38.2109 43.5166 38.0587 43.3923C37.923 43.2778 37.7211 43.2679 37.592 43.4021C37.4729 43.5199 37.463 43.7489 37.602 43.8634Z" fill="#46A358"/>
<path d="M71.7628 34.2251C71.4087 34.1596 71.0578 34.1662 70.707 34.2545C70.2933 34.3592 70.482 34.9874 70.8957 34.8827C71.1273 34.8238 71.3623 34.814 71.5973 34.8598C72.0176 34.9383 72.1798 34.3036 71.7628 34.2251Z" fill="#46A358"/>
<path d="M69.4792 34.9023C69.3534 34.9971 69.2244 35.0888 69.0986 35.1836C68.9563 35.2883 68.8901 35.4715 68.9894 35.6351C69.0754 35.7758 69.3005 35.851 69.4461 35.7431C69.5719 35.6482 69.7009 35.5566 69.8267 35.4617C69.969 35.357 70.0352 35.1738 69.9359 35.0102C69.8499 34.8696 69.6248 34.7976 69.4792 34.9023Z" fill="#46A358"/>
<path d="M69.5851 34.5817C70.012 34.5718 69.9988 33.9175 69.5719 33.9273C69.1449 33.9371 69.1582 34.5915 69.5851 34.5817Z" fill="#46A358"/>
</g>
<defs>
<clipPath id="clip0_101_519">
<rect width="83" height="40" fill="white" transform="translate(7 44)"/>
</clipPath>
<clipPath id="clip1_101_519">
<rect width="44" height="49" fill="white" transform="translate(30)"/>
</clipPath>
</defs>
</svg>
